<?xml version="1.0" encoding="utf-8"?>
<!-- Generator: Adobe Illustrator 22.1.0, SVG Export Plug-In . SVG Version: 6.00 Build 0)  -->
<svg version="1.1" id="Capa_1" xmlns="http://www.w3.org/2000/svg" xmlns:xlink="http://www.w3.org/1999/xlink" x="0px" y="0px"
	 viewBox="0 0 149 38" style="enable-background:new 0 0 149 38;" xml:space="preserve">
<style type="text/css">
	.st0{fill:#EE3124;}
	.st1{fill:#211915;}
	.st2{fill:#FFFFFF;}
</style>
<title>Artotel</title>
<desc>Created with Sketch.</desc>
<g id="Artotel" transform="translate(187.000000, 255.000000)">
	<polygon id="Shape" class="st0" points="-122.5,-252.6 -122.5,-243.3 -115.3,-238.2 -115.3,-255 	"/>
	<path id="Shape_1_" class="st1" d="M-167.8-240.2c-1.8-2-4.4-3.1-7.2-3.1c-7,0-12,5.7-12,12.7s5,12.7,12,12.7
		c2.7,0,5.3-1.1,7.1-3.1v2.7h7.2v-24.7h-7.2V-240.2z M-173.6-224.4c-3.4,0-6.1-2.7-6.1-6.1c0-3.4,2.7-6.1,6.1-6.1
		c3.4,0,6.1,2.7,6.1,6.1C-167.5-227.1-170.2-224.4-173.6-224.4z M-129.1-252.6h-7.2v9.3h-2.7v6.2h2.7v18.8h7.2V-237h5.1v-6.2h-5.1
		V-252.6z M-149.1-239.9v-3h-7.2v24.7h7.2v-11.6c0-7,4.6-7.3,7.8-7.3v-6.2C-143.3-243.2-147.4-243-149.1-239.9L-149.1-239.9z
		 M-49.7-252.6v34.4h4.4v-34.4H-49.7z M-64.7-243.2c-7.1,0-12.1,5.3-12.1,12.5c0,7.6,5.2,12.9,12.5,12.9c4.2-0.1,8.1-2.1,10.7-5.4
		l-3.4-2.4c-1.7,2.3-4.5,3.6-7.3,3.6c-4-0.1-7.3-3.2-7.7-7.1h18.7C-52.5-240.3-59.3-243.2-64.7-243.2L-64.7-243.2z M-71.8-233
		c0.4-2.8,2.5-5.7,7.1-5.7c4.2,0,6.5,2.4,6.8,5.7H-71.8z M-81.8-252.6h-4.4v9.3h-2.8v4h2.8v21.1h4.4v-21.1h4.4v-4h-4.4V-252.6z
		 M-103-243.2c-7,0-12.7,5.7-12.7,12.8s5.7,12.7,12.7,12.7c7,0,12.7-5.7,12.7-12.7c0-3.4-1.4-6.6-3.7-9
		C-96.4-241.9-99.6-243.3-103-243.2z M-103-222.5c-4.4,0-8-3.6-8-8c0-4.4,3.6-8,8-8s8,3.6,8,8c0,2.1-0.8,4.2-2.3,5.7
		S-100.9-222.5-103-222.5L-103-222.5z"/>
</g>
</svg>
