<?xml version="1.0" encoding="UTF-8"?>
<svg width="647px" height="351px" viewBox="0 0 647 351" version="1.1" xmlns="http://www.w3.org/2000/svg" xmlns:xlink="http://www.w3.org/1999/xlink">
    <title>COUNTRY CMYK</title>
    <g id="COUNTRY-CMYK" stroke="none" stroke-width="1" fill="none" fill-rule="evenodd">
        <polygon id="Fill-1" fill="#64625A" points="188.638 291.115 458.893 291.115 458.893 290.262 188.638 290.262"></polygon>
        <path d="M314.223,99.091 C304.219,99.091 299.104,93.69 299.004,83.046 L299.004,75.081 L301.622,75.074 C311.606,75.074 316.688,80.462 316.794,91.106 L316.787,99.072 L314.223,99.091" id="Fill-2" fill="#64625A"></path>
        <path d="M325.112,76.606 L325.112,88.501 C325.112,98.085 318.232,105.805 308.707,106.951 L308.547,106.964 C305.237,107.21 303.945,109.961 303.606,110.834 L303.325,111.58 L306.336,111.58 C319.364,111.58 329.581,101.443 329.581,88.495 L329.581,76.606 L325.112,76.606" id="Fill-3" fill="#64625A"></path>
        <path d="M346.908,21.812 C345.403,21.812 343.798,21.766 342.106,21.766 C336.918,21.766 329.457,22.039 322.924,24.216 C327.053,28.366 329.577,34.108 329.577,40.542 L329.577,72.818 C340.221,71.693 348.513,60.875 348.513,49.919 L348.527,49.919 L348.527,21.839 C348.167,21.839 347.268,21.812 346.908,21.812" id="Fill-4" fill="#64625A"></path>
        <path d="M314.851,23.814 C312.433,22.588 309.723,21.862 306.832,21.822 L306.126,21.822 L306.126,33.046 C308.338,29.409 311.321,26.258 314.851,23.814" id="Fill-5" fill="#64625A"></path>
        <path d="M323.865,33.798 L323.878,33.798 C322.773,30.901 320.967,28.371 318.643,26.399 C311.217,30.881 306.268,38.767 306.142,47.772 L306.128,47.772 L306.128,51.888 L306.135,51.888 C306.228,62.785 314.507,71.723 325.111,72.829 L325.111,40.579 C325.111,38.174 324.671,35.89 323.865,33.798" id="Fill-6" fill="#64625A"></path>
        <path d="M148.113,145.124 C125.228,145.124 107.304,163.134 107.304,186.132 C107.304,208.971 125.101,226.854 147.82,226.854 C170.785,226.854 188.775,208.837 188.775,185.833 C188.775,163.001 170.912,145.124 148.113,145.124 M148.113,215.305 C132.534,215.305 120.319,202.357 120.319,185.833 C120.319,169.122 132.141,156.513 147.82,156.513 C163.479,156.513 175.754,169.528 175.754,186.132 C175.754,202.77 163.878,215.305 148.113,215.305" id="Fill-7" fill="#64625A"></path>
        <path d="M84.682,208.028 C82.424,208.028 80.266,208.701 78.228,210.052 C73.426,213.743 68.424,215.308 61.503,215.308 C46.005,215.308 33.863,202.36 33.863,185.835 C33.863,169.397 45.678,156.509 60.771,156.509 C64.501,156.509 67.898,157.189 71.161,158.574 C72.906,159.313 74.505,160.379 76.043,161.398 C76.656,161.804 77.269,162.21 77.881,162.597 C79.347,163.509 80.952,163.982 82.677,163.982 C86.753,163.982 90.357,161.398 91.722,160.286 L92.655,159.527 L91.815,158.661 C85.821,152.353 76.876,145.12 60.904,145.12 C38.445,145.12 20.842,163.129 20.842,186.128 C20.842,208.967 38.445,226.857 60.904,226.857 C77.016,226.857 86.207,218.991 92.422,212.137 L93.281,211.192 L92.221,210.472 C91.142,209.733 88.252,208.028 84.682,208.028" id="Fill-8" fill="#64625A"></path>
        <path d="M380.781,148.424 C381.747,150.722 385.563,158.222 394.295,158.222 L412.944,158.222 L412.944,225.732 L425.013,225.732 L425.013,158.222 L454.319,158.222 L454.319,146.885 L380.129,146.885 L380.781,148.424" id="Fill-9" fill="#64625A"></path>
        <path d="M625.11,145.631 C622.44,144.986 614.161,144.086 607.827,153.285 C601.319,162.736 590.616,178.381 588.111,182.038 C586.1,178.974 578.647,167.671 570.721,156.242 C564.394,147.11 557.5,145.745 553.957,145.745 C552.764,145.745 551.846,145.891 551.293,146.011 L549.668,146.357 L581.964,193.541 L581.964,225.564 L594.026,225.564 L594.026,193.433 L626.689,146.011 L625.11,145.631" id="Fill-10" fill="#64625A"></path>
        <path d="M262.461,192.141 C262.461,205.761 253.022,215.652 240.028,215.652 C227.1,215.652 219.381,207.2 219.381,193.04 L219.381,157.253 C219.381,150.167 213.426,147.176 207.858,146.737 L206.666,146.643 L206.666,195.871 C206.666,215.279 218.188,227.341 236.751,227.341 C251.89,227.341 259.117,220.84 262.481,215.606 C262.62,219.475 264.039,222.313 266.676,224.031 C269.008,225.543 271.732,225.769 273.164,225.769 C273.464,225.769 273.723,225.756 273.969,225.75 L275.029,225.703 L275.029,146.889 L262.461,146.889 L262.461,192.141" id="Fill-11" fill="#64625A"></path>
        <path d="M340.506,145.786 C325.359,145.786 318.139,151.781 314.782,157.022 C314.63,153.146 313.217,150.315 310.567,148.59 C308.249,147.078 305.518,146.852 304.092,146.852 C303.753,146.852 303.473,146.858 303.26,146.878 L302.221,146.945 L302.221,225.732 L314.796,225.732 L314.796,180.993 C314.796,167.366 324.227,157.475 337.229,157.475 C350.156,157.475 357.876,165.934 357.876,180.101 L357.876,215.188 C357.876,222.282 363.823,225.272 369.398,225.698 L370.59,225.792 L370.59,177.263 C370.59,157.855 359.061,145.786 340.506,145.786" id="Fill-12" fill="#64625A"></path>
        <path d="M545.941,215.038 C545.168,215.405 541.052,217.269 537.442,217.269 C527.791,217.269 523.135,209.23 517.334,200.872 C516.521,199.693 515.709,198.527 514.89,197.375 C514.077,196.249 513.224,195.07 512.345,193.872 L512.698,193.872 C523.355,193.572 526.592,190.281 529.729,187.085 L530.135,186.678 C534.245,182.515 536.416,176.934 536.41,170.526 C536.416,163.433 533.572,157.159 528.397,152.877 C523.242,148.586 516.015,146.322 507.51,146.322 L473.482,146.322 L473.482,225.868 L485.437,225.868 L485.437,157.652 L506.89,157.652 C512.432,157.652 516.948,158.897 519.952,161.249 C522.842,163.526 524.327,166.75 524.341,170.839 C524.327,175.055 522.722,178.446 519.579,180.93 C516.435,183.387 512.012,184.686 506.764,184.686 L496.447,184.686 C496.447,184.686 494.408,184.713 494.316,184.713 C494.129,184.713 493.823,184.74 493.823,184.74 C492.917,184.866 492.231,185.439 492.011,186.252 C491.804,187.031 492.064,187.883 492.637,188.336 C497.852,192.426 501.995,198.194 505.998,203.775 C507.064,205.253 508.103,206.812 509.162,208.377 C515.15,217.25 521.317,227.027 533.006,227.027 L533.259,227.027 C540.113,226.96 545.654,221.671 545.941,215.038" id="Fill-13" fill="#64625A"></path>
        <path d="M238.546,322.857 L232.451,322.857 C232.318,322.857 232.178,322.744 232.178,322.59 L232.178,307.811 C232.178,307.658 232.318,307.518 232.451,307.518 L237.287,307.518 C238.479,307.518 239.758,307.677 240.817,308.423 C241.736,309.049 242.389,310.043 242.389,311.415 C242.389,313.059 241.63,314.185 240.391,314.751 L240.391,314.837 C242.569,315.271 243.648,316.709 243.648,318.734 C243.648,321.598 241.11,322.857 238.546,322.857 M238.905,309.996 C238.453,309.703 237.893,309.569 237.307,309.569 L234.696,309.569 L234.696,314.052 L237.081,314.052 C237.667,314.052 238.299,314.005 238.793,313.758 C239.399,313.446 239.851,312.813 239.851,311.821 C239.851,310.941 239.465,310.355 238.905,309.996 M239.871,316.436 C239.332,316.143 238.612,316.077 237.467,316.077 L234.696,316.077 L234.696,320.805 L238.006,320.805 C238.633,320.805 239.218,320.739 239.712,320.539 C240.524,320.2 241.084,319.546 241.084,318.421 C241.084,317.588 240.704,316.842 239.871,316.436" id="Fill-14" fill="#64625A"></path>
        <path d="M259.255,307.813 C259.368,307.633 259.481,307.52 259.701,307.52 L261.972,307.52 C262.265,307.52 262.312,307.747 262.178,307.973 L256.397,316.305 L256.397,322.585 C256.397,322.746 256.264,322.859 256.104,322.859 L254.146,322.859 C253.993,322.859 253.88,322.746 253.88,322.585 L253.88,316.305 L248.125,307.973 C247.965,307.747 248.011,307.52 248.324,307.52 L250.549,307.52 C250.796,307.52 250.909,307.613 251.022,307.813 L255.138,313.8 L259.255,307.813" id="Fill-15" fill="#64625A"></path>
        <path d="M285.293,316.979 L289.049,322.387 C289.182,322.607 289.229,322.854 288.909,322.854 L286.731,322.854 C286.485,322.854 286.325,322.814 286.192,322.567 L282.569,317.206 L279.198,317.206 L279.198,322.587 C279.198,322.747 279.065,322.854 278.932,322.854 L276.947,322.854 C276.814,322.854 276.681,322.747 276.681,322.587 L276.681,307.814 C276.681,307.655 276.814,307.521 276.947,307.521 L283.268,307.521 C284.753,307.521 286.059,307.748 287.071,308.467 C288.19,309.28 288.869,310.625 288.869,312.364 C288.869,313.916 288.263,315.181 287.111,316.053 C286.531,316.526 285.945,316.799 285.293,316.979 M279.198,309.66 L279.198,315.087 L282.841,315.087 C283.807,315.087 284.573,314.995 285.206,314.615 C285.852,314.235 286.305,313.509 286.305,312.383 C286.305,311.278 285.899,310.558 285.246,310.152 C284.64,309.752 283.874,309.66 283.042,309.66 L279.198,309.66" id="Fill-16" fill="#64625A"></path>
        <path d="M297.167,322.565 C297.1,322.764 296.96,322.858 296.713,322.858 L294.782,322.858 C294.602,322.858 294.535,322.764 294.535,322.651 C294.535,322.584 294.555,322.518 294.582,322.431 L300.11,307.745 C300.177,307.545 300.317,307.452 300.537,307.452 L302.608,307.452 C302.854,307.452 302.967,307.545 303.054,307.745 L308.522,322.431 C308.542,322.498 308.589,322.584 308.589,322.651 C308.589,322.764 308.522,322.858 308.316,322.858 L306.338,322.858 C306.091,322.858 305.958,322.764 305.892,322.565 L304.746,319.408 L298.332,319.408 L297.167,322.565 Z M301.549,310.516 L298.965,317.382 L304.113,317.382 L301.549,310.516 L301.549,310.516 Z" id="Fill-17" fill="#64625A"></path>
        <path d="M325.095,321.753 C323.563,322.607 321.811,322.86 320.079,322.86 L314.771,322.86 C314.638,322.86 314.505,322.747 314.505,322.586 L314.505,307.814 C314.505,307.654 314.638,307.521 314.771,307.521 L320.392,307.521 C322.844,307.521 325.048,308.08 326.733,309.905 C327.839,311.104 328.558,312.835 328.558,315.2 C328.558,318.038 327.452,320.428 325.095,321.753 M317.022,320.742 L319.88,320.742 C321.205,320.742 322.444,320.542 323.43,320.022 C325.161,319.143 325.994,317.405 325.994,315.2 C325.994,313.468 325.521,312.203 324.715,311.324 C323.656,310.178 322.038,309.659 320.033,309.659 L317.022,309.659 L317.022,320.742" id="Fill-18" fill="#64625A"></path>
        <path d="M337.777,307.521 C337.91,307.521 338.043,307.655 338.043,307.814 L338.043,322.587 C338.043,322.747 337.91,322.86 337.777,322.86 L335.798,322.86 C335.658,322.86 335.526,322.747 335.526,322.587 L335.526,307.814 C335.526,307.655 335.658,307.521 335.798,307.521 L337.777,307.521" id="Fill-19" fill="#64625A"></path>
        <path d="M344.994,321.641 C344.834,321.548 344.794,321.415 344.881,321.261 L345.666,319.59 C345.74,319.457 345.846,319.39 346.026,319.503 C347.018,320.11 348.364,320.922 350.276,320.922 C351.221,320.922 351.941,320.696 352.413,320.335 C353,319.91 353.246,319.277 353.246,318.597 C353.246,317.565 352.413,316.979 351.315,316.553 C350.029,316.034 348.524,315.787 347.085,314.974 C345.846,314.275 344.973,313.309 344.973,311.578 C344.973,310.312 345.466,309.233 346.432,308.487 C347.378,307.748 348.77,307.315 350.615,307.315 C352.706,307.315 354.278,307.881 355.291,308.447 C355.45,308.534 355.471,308.667 355.404,308.827 L354.618,310.472 C354.531,310.631 354.391,310.671 354.238,310.585 C353.159,309.953 351.827,309.5 350.482,309.5 C349.47,309.5 348.724,309.726 348.277,310.112 C347.851,310.452 347.625,310.898 347.625,311.464 C347.625,312.45 348.457,312.969 349.716,313.396 C351.155,313.916 352.773,314.162 354.098,315.021 C355.137,315.673 355.99,316.733 355.99,318.398 C355.99,319.91 355.364,321.076 354.325,321.888 C353.34,322.68 351.921,323.08 350.302,323.08 C347.871,323.08 346.119,322.34 344.994,321.641" id="Fill-20" fill="#64625A"></path>
        <path d="M361.972,321.641 C361.812,321.548 361.772,321.415 361.859,321.261 L362.645,319.59 C362.718,319.457 362.825,319.39 363.005,319.503 C363.997,320.11 365.342,320.922 367.254,320.922 C368.2,320.922 368.919,320.696 369.392,320.335 C369.978,319.91 370.224,319.277 370.224,318.597 C370.224,317.565 369.392,316.979 368.293,316.553 C367.007,316.034 365.502,315.787 364.064,314.974 C362.825,314.275 361.952,313.309 361.952,311.578 C361.952,310.312 362.445,309.233 363.41,308.487 C364.357,307.748 365.748,307.315 367.593,307.315 C369.685,307.315 371.257,307.881 372.269,308.447 C372.429,308.534 372.449,308.667 372.382,308.827 L371.596,310.472 C371.509,310.631 371.37,310.671 371.216,310.585 C370.138,309.953 368.805,309.5 367.46,309.5 C366.448,309.5 365.702,309.726 365.256,310.112 C364.829,310.452 364.603,310.898 364.603,311.464 C364.603,312.45 365.435,312.969 366.694,313.396 C368.133,313.916 369.752,314.162 371.077,315.021 C372.116,315.673 372.968,316.733 372.968,318.398 C372.968,319.91 372.336,321.076 371.303,321.888 C370.318,322.68 368.899,323.08 367.28,323.08 C364.849,323.08 363.097,322.34 361.972,321.641" id="Fill-21" fill="#64625A"></path>
        <path d="M386.909,323.083 C382.5,323.083 378.81,319.772 378.81,315.223 C378.81,310.654 382.5,307.317 386.909,307.317 C391.292,307.317 395.002,310.654 395.002,315.223 C395.002,319.793 391.292,323.083 386.909,323.083 M386.909,309.682 C383.826,309.682 381.468,312.139 381.468,315.223 C381.468,318.307 383.826,320.738 386.909,320.738 C389.986,320.738 392.331,318.307 392.331,315.223 C392.331,312.139 389.986,309.682 386.909,309.682" id="Fill-22" fill="#64625A"></path>
        <path d="M412.948,307.813 C412.948,307.653 413.061,307.52 413.215,307.52 L415.059,307.52 C415.219,307.52 415.352,307.653 415.352,307.813 L415.352,322.585 C415.352,322.746 415.219,322.859 415.059,322.859 L413.307,322.859 C413.081,322.859 412.968,322.812 412.815,322.566 L404.289,311.689 L404.289,322.585 C404.289,322.746 404.176,322.859 404.023,322.859 L402.151,322.859 C402.018,322.859 401.885,322.746 401.885,322.585 L401.885,307.813 C401.885,307.653 402.018,307.52 402.151,307.52 L403.909,307.52 C404.136,307.52 404.243,307.586 404.423,307.813 L412.948,318.716 L412.948,307.813" id="Fill-23" fill="#64625A"></path>
        <path d="M168.875,272.793 L168.875,252.085 C168.875,250.94 169.435,250.347 170.5,250.347 L171.02,250.347 C172.126,250.347 172.678,250.94 172.678,252.085 L172.678,272.793 C172.678,273.939 172.126,274.525 171.02,274.525 L170.5,274.525 C169.435,274.525 168.875,273.939 168.875,272.793" id="Fill-24" fill="#64625A"></path>
        <path d="M187.312,272.793 L187.312,252.492 C187.312,251.2 187.938,250.347 189.117,250.347 L189.749,250.347 C190.888,250.347 191.328,250.827 192.034,251.786 L203.83,268.55 L203.83,252.085 C203.83,250.94 204.309,250.347 205.415,250.347 L205.855,250.347 C206.887,250.347 207.406,250.94 207.406,252.085 L207.406,272.386 C207.406,273.712 206.74,274.525 205.634,274.525 L205.341,274.525 C204.196,274.525 203.903,274.192 203.317,273.379 L190.888,255.776 L190.888,272.793 C190.888,273.939 190.376,274.525 189.263,274.525 L188.857,274.525 C187.785,274.525 187.312,273.939 187.312,272.793" id="Fill-25" fill="#64625A"></path>
        <path d="M221.68,272.793 L221.68,252.492 C221.68,251.2 222.306,250.347 223.485,250.347 L224.104,250.347 C225.25,250.347 225.696,250.827 226.395,251.786 L238.198,268.55 L238.198,252.085 C238.198,250.94 238.671,250.347 239.777,250.347 L240.216,250.347 C241.248,250.347 241.768,250.94 241.768,252.085 L241.768,272.386 C241.768,273.712 241.102,274.525 239.996,274.525 L239.703,274.525 C238.564,274.525 238.271,274.192 237.672,273.379 L225.25,255.776 L225.25,272.793 C225.25,273.939 224.73,274.525 223.632,274.525 L223.218,274.525 C222.153,274.525 221.68,273.939 221.68,272.793" id="Fill-26" fill="#64625A"></path>
        <path d="M267.502,267.665 C267.502,264.154 269.786,261.943 273.476,260.797 C272.291,259.505 271.372,257.914 271.372,255.961 C271.372,252.638 274.063,250.014 278.045,250.014 C281.655,250.014 284.233,252.372 284.233,255.623 C284.233,258.433 282.248,260.391 278.671,261.463 L284.279,266.479 C285.079,265.046 285.605,263.455 286.078,261.643 C286.524,260.091 287.19,259.579 288.183,259.579 C289.288,259.579 289.841,260.464 289.801,260.611 C289.142,263.601 288.003,266.293 286.484,268.51 L291.499,273.019 C291.613,273.092 291.093,274.565 289.475,274.565 C288.848,274.565 288.003,274.418 287.077,273.459 L284.526,271.021 C282.321,273.459 279.484,274.858 276.127,274.858 C270.965,274.858 267.502,272.28 267.502,267.665 M282.395,269.03 L275.241,262.562 C272.73,263.375 271.045,264.821 271.045,267.372 C271.045,270.282 273.25,271.98 276.387,271.98 C278.778,271.98 280.843,270.794 282.395,269.03 M276.714,259.832 C279.744,258.986 281.103,257.774 281.103,255.815 C281.103,254.077 279.817,252.745 278.006,252.745 C275.907,252.745 274.795,254.19 274.795,255.961 C274.795,257.507 275.501,258.653 276.714,259.832" id="Fill-27" fill="#64625A"></path>
        <path d="M317.201,270.101 C317.201,268.842 318.826,267.917 318.932,268.07 C320.298,270.061 322.842,271.727 326.126,271.727 C329.443,271.727 331.321,270.355 331.321,267.99 C331.321,265.299 328.524,264.68 325.353,263.934 C321.663,263.088 317.834,261.79 317.834,256.947 C317.834,252.898 321.337,250.013 326.419,250.013 C331.734,250.013 334.605,252.525 334.605,254.263 C334.605,255.622 332.913,256.467 332.84,256.361 C331.581,254.556 329.223,253.151 326.459,253.151 C323.475,253.151 321.517,254.596 321.517,256.807 C321.517,259.424 323.841,259.831 327.158,260.61 C331.214,261.536 335.124,263.115 335.124,267.737 C335.124,272.126 331.734,274.857 326.159,274.857 C320.411,274.857 317.201,272.053 317.201,270.101" id="Fill-28" fill="#64625A"></path>
        <path d="M347.917,264.677 L347.917,252.083 C347.917,250.937 348.509,250.35 349.542,250.35 L350.055,250.35 C351.161,250.35 351.713,250.937 351.713,252.083 L351.713,264.557 C351.713,269.1 353.705,271.464 357.648,271.464 C361.671,271.464 363.582,269.173 363.582,264.524 L363.582,252.083 C363.582,250.904 364.142,250.35 365.207,250.35 L365.793,250.35 C366.866,250.35 367.385,250.904 367.385,252.083 L367.385,264.597 C367.385,271.238 363.955,274.821 357.614,274.821 C351.274,274.821 347.917,271.318 347.917,264.677" id="Fill-29" fill="#64625A"></path>
        <path d="M381.725,272.793 L381.725,252.085 C381.725,250.94 382.278,250.347 383.35,250.347 L383.863,250.347 C384.969,250.347 385.522,250.94 385.522,252.085 L385.522,272.793 C385.522,273.939 384.969,274.525 383.863,274.525 L383.35,274.525 C382.278,274.525 381.725,273.939 381.725,272.793" id="Fill-30" fill="#64625A"></path>
        <path d="M398.356,252.271 L398.356,252.085 C398.356,251.045 398.982,250.493 400.128,250.493 L417.011,250.493 C418.151,250.493 418.737,251.045 418.737,252.085 L418.737,252.271 C418.737,253.304 418.151,253.89 417.011,253.89 L410.485,253.89 L410.485,272.793 C410.485,273.938 409.892,274.524 408.786,274.524 L408.273,274.524 C407.2,274.524 406.648,273.938 406.648,272.793 L406.648,253.89 L400.128,253.89 C398.982,253.89 398.356,253.304 398.356,252.271" id="Fill-31" fill="#64625A"></path>
        <path d="M431.238,272.278 L431.238,252.636 C431.238,251.351 432.057,250.499 433.27,250.499 L447.096,250.499 C448.276,250.499 448.868,251.085 448.868,252.084 L448.868,252.303 C448.868,253.335 448.276,253.888 447.096,253.888 L435.041,253.888 L435.041,260.569 L444.365,260.569 C445.585,260.569 446.137,261.088 446.137,262.087 L446.137,262.194 C446.137,263.233 445.545,263.786 444.365,263.786 L435.041,263.786 L435.041,271.026 L447.316,271.026 C448.495,271.026 449.048,271.539 449.048,272.538 L449.048,272.717 C449.048,273.796 448.495,274.382 447.316,274.382 L433.27,274.382 C432.057,274.382 431.238,273.57 431.238,272.278" id="Fill-32" fill="#64625A"></path>
        <path d="M460.739,270.101 C460.739,268.842 462.364,267.917 462.477,268.07 C463.836,270.061 466.381,271.727 469.664,271.727 C472.981,271.727 474.859,270.355 474.859,267.99 C474.859,265.299 472.062,264.68 468.891,263.934 C465.201,263.088 461.365,261.79 461.365,256.947 C461.365,252.898 464.875,250.013 469.964,250.013 C475.265,250.013 478.136,252.525 478.136,254.263 C478.136,255.622 476.444,256.467 476.371,256.361 C475.119,254.556 472.761,253.151 469.99,253.151 C467.007,253.151 465.055,254.596 465.055,256.807 C465.055,259.424 467.373,259.831 470.69,260.61 C474.752,261.536 478.655,263.115 478.655,267.737 C478.655,272.126 475.265,274.857 469.697,274.857 C463.943,274.857 460.739,272.053 460.739,270.101" id="Fill-33" fill="#64625A"></path>
    </g>
</svg>