<svg width="157" height="54" viewBox="0 0 157 54" fill="none" xmlns="http://www.w3.org/2000/svg">
<path d="M114.697 51.2321C114.761 51.1364 114.845 51.0556 114.943 50.9949C115.041 50.9342 115.15 50.8951 115.264 50.88C115.264 50.88 129.207 46.1058 147.752 47.0546C147.752 47.0546 148.806 47.0129 148.52 47.4784C148.355 47.7529 148.042 47.7767 147.445 47.8006C147.116 47.828 146.785 47.836 146.456 47.8245C146.456 47.8245 148.352 48.5675 140.865 48.4213C140.865 48.4213 141.526 49.1046 138.771 48.9076C138.771 48.9076 131.091 48.5526 115.571 51.3962C115.571 51.3962 114.351 51.6618 114.685 51.2411L114.697 51.2321Z" fill="#242E4A"/>
<path d="M130.448 35.7576C130.448 35.7576 129.523 34.579 129.68 35.9366C129.733 38.0589 129.621 40.1821 129.343 42.2864C129.287 42.1393 129.212 42 129.122 41.8716C129.122 41.8716 128.315 40.7885 127.414 41.0868C127.414 41.0868 126.263 41.4539 125.595 43.2114C125.595 43.2114 125.125 44.4258 125.258 45.3389C125.258 45.3389 125.214 47.7409 128.106 46.0431C128.347 45.8839 128.57 45.6977 128.77 45.4881C128.677 45.7478 128.613 46.017 128.578 46.2908C128.578 46.2908 128.475 46.9263 128.761 47.0845C128.87 47.1471 128.989 47.0606 129.243 46.4459C129.243 46.4459 131.31 41.1137 131.41 38.9146C131.41 38.9146 132.134 37.8195 130.448 35.7576ZM126.859 45.3479C126.859 45.3479 126.646 45.2076 126.661 44.5631C126.729 43.8255 127.012 43.1247 127.473 42.549C127.473 42.549 127.683 42.2774 127.854 42.2506C127.911 42.2506 128.005 42.3222 128.046 42.6653C128.046 42.7489 127.816 42.7668 127.905 43.0324C127.905 43.0324 128.303 44.0558 129.148 43.5963C129.113 43.8052 129.074 44.017 129.036 44.2289C128.596 44.8436 127.671 45.9118 126.859 45.3508V45.3479ZM137.551 41.0212C137.551 41.0212 139.222 42.8115 139.154 44.0648C139.154 44.0648 138.927 45.8014 136.083 45.7417C136.083 45.7417 135.383 45.6373 136.083 45.1808C136.083 45.1808 137.929 44.584 136.718 42.3341C136.718 42.3341 135.575 43.6888 134.819 44.4408C132.654 46.5742 132.229 45.7925 132.229 45.7925C131.405 44.5989 132.007 41.991 132.007 41.991C132.326 40.6124 133.032 41.0958 133.032 41.0958C134.066 41.2659 133.679 42.167 133.679 42.167C133.549 42.8593 133.383 42.7847 133.383 42.7847C133.064 43.0413 132.999 44.1841 132.999 44.1841C133.126 44.8137 132.571 45.6761 134.181 44.2826C134.559 43.8977 136.479 41.7165 136.786 40.8571C136.786 40.8571 137.105 40.0186 137.563 41.0093L137.551 41.0212ZM135.073 38.3596C135.062 38.4831 135.024 38.6025 134.96 38.7085C134.897 38.8146 134.81 38.9045 134.707 38.9713C134.429 39.1861 133.853 39.5472 133.67 39.4964C133.487 39.4457 133.693 38.8489 133.702 38.6818C133.705 38.5126 133.722 38.3439 133.753 38.1776C133.768 37.9921 133.853 37.8196 133.99 37.6958C134.128 37.5719 134.307 37.5062 134.491 37.5121C134.68 37.5457 134.849 37.6537 134.96 37.8125C135.07 37.9714 135.114 38.1681 135.082 38.3596H135.073ZM146.869 40.687C147.362 40.0246 147.711 40.323 147.711 40.323C147.758 40.3498 147.855 40.323 147.897 40.323C148.555 40.2722 148.015 40.9198 148.015 40.9198C147.581 41.6049 147.227 42.3377 146.958 43.104C146.859 43.3794 146.776 43.6603 146.71 43.9454C146.509 44.8078 147.409 44.1961 147.409 44.1961C147.515 44.1105 147.614 44.0167 147.705 43.9156C147.757 43.8607 147.824 43.8224 147.897 43.8052C148.086 43.7783 147.767 42.7907 147.767 42.7907C147.628 42.3998 147.655 42.3819 147.655 42.3819C147.566 41.9015 147.832 41.7851 147.832 41.7851C148.127 41.612 148.337 42.0656 148.337 42.0656C148.553 42.5132 148.713 42.9863 148.812 43.474C149.028 44.3691 148.358 44.3035 148.358 44.3035C148.075 44.4308 147.819 44.6121 147.604 44.8376C147.088 45.227 146.474 45.4627 145.832 45.5179C144.807 45.5537 144.887 44.6407 144.887 44.6407C144.887 43.656 146.854 40.696 146.854 40.696L146.869 40.687ZM142.734 41.985C143.207 42.3192 143.998 43.0562 143.865 43.8261C143.865 43.8261 143.638 45.5597 140.797 45.5C140.797 45.5 140.501 45.5 140.481 45.2912C140.481 45.1479 140.543 45.0345 140.776 44.9391C140.776 44.9391 142.625 44.3423 141.414 42.0924L140.315 42.9548C140.315 42.9548 139.869 43.4531 139.902 42.7429C139.918 42.5461 139.988 42.3578 140.106 42.1998C140.106 42.1998 141.136 41.5852 141.479 40.6273C141.65 39.9918 142.569 39.4576 142.66 39.9918C142.699 40.2335 142.427 40.3797 142.291 40.5527C141.996 40.9406 142.38 41.7463 142.728 41.985H142.734ZM124.423 45.4493C124.419 45.4246 124.406 45.4023 124.387 45.3867C124.31 45.3329 123.935 45.506 123.563 45.7328L123.401 45.8283C123.289 45.8936 123.181 45.9664 123.079 46.0461C123.079 46.0461 122.839 46.2371 122.866 45.8044V45.7865C122.866 45.691 122.89 45.5687 122.896 45.4374C122.896 45.4374 123.223 44.1095 123.365 43.7395C123.365 43.7395 123.442 43.3874 123.566 42.9906C123.566 42.9906 124.124 42.3938 123.096 42.2118C123.096 42.2118 122.606 40.9884 122.077 42.913C122.045 42.7789 121.985 42.6536 121.899 42.5458C121.814 42.4381 121.707 42.3505 121.584 42.2894C121.508 42.251 121.424 42.2286 121.339 42.2237C121.287 42.228 121.235 42.228 121.183 42.2237C121.183 42.2237 120.686 42.0507 120.161 42.719C119.599 43.3427 117.96 45.327 118.335 46.989C118.335 46.989 118.536 47.8484 119.292 47.8454C119.948 47.8281 120.576 47.5753 121.064 47.1322C121.231 46.9762 121.387 46.8087 121.531 46.6309C121.542 46.7406 121.561 46.8492 121.587 46.9562C121.587 46.9771 121.587 46.998 121.602 47.0188C121.628 47.1481 121.692 47.2666 121.785 47.359C121.866 47.4265 121.962 47.4747 122.064 47.5C122.166 47.5253 122.273 47.5271 122.376 47.5052C122.407 47.4997 122.437 47.4918 122.467 47.4813C122.467 47.4813 123.525 47.2217 123.501 46.7682C123.501 46.5444 123.569 46.4996 123.569 46.4996C123.588 46.4876 123.602 46.4698 123.61 46.4489C123.618 46.4279 123.619 46.4049 123.613 46.3833C123.613 46.3833 124.458 45.8104 124.428 45.4523L124.423 45.4493ZM121.383 46.0819C121.292 46.2623 121.156 46.4155 120.988 46.5265C120.988 46.5265 119.83 47.2456 119.868 46.2281C119.9 45.8587 119.977 45.4948 120.099 45.145C120.419 44.3447 120.88 43.6097 121.46 42.9757C121.534 42.8981 121.602 42.8921 121.643 42.9488C121.728 43.1069 121.802 43.2703 121.865 43.4382L121.942 43.5575C121.765 44.2906 121.632 45.034 121.546 45.7835C121.505 45.8897 121.45 45.9901 121.383 46.0819ZM113.306 40.5259C113.527 40.9347 113.229 41.5881 113.229 41.5881C111.944 44.2408 110.34 50.51 110.018 51.7901C110.011 51.8085 110.005 51.8275 110.001 51.8468C109.971 51.9602 109.956 52.0228 109.956 52.0228C109.936 52.1183 109.912 52.2019 109.888 52.2824C109.846 52.5216 109.827 52.7645 109.832 53.0075C109.832 53.3507 109.832 53.6968 109.726 53.7416C109.431 53.8758 109.289 53.485 109.209 53.0612C108.995 52.9736 108.815 52.8201 108.692 52.6226C107.653 51.9184 108.429 49.958 108.429 49.958C109.138 47.1233 112.644 41.1376 112.644 41.1376C113.055 40.4692 113.235 40.3886 113.303 40.5408L113.306 40.5259ZM118.622 50.5577C119.177 51.3395 119.605 51.8945 119.487 51.999C119.109 52.3272 117.42 50.9844 117.42 50.9844C115.402 49.2592 113.837 47.0577 112.863 44.575C112.852 44.539 112.85 44.5009 112.857 44.464C112.865 44.4271 112.881 44.3925 112.904 44.3632C113.004 44.2498 113.167 44.1871 113.595 44.1394C113.368 44.029 113.3 43.9991 113.317 43.9245C113.359 43.7992 113.775 43.8022 113.775 43.8022C114.103 43.8022 114.339 43.7694 114.339 43.7694C114.821 43.7157 115.063 43.6709 115.063 43.6709C116.085 43.5068 116.487 43.0562 116.487 43.0562C117.497 42.0238 115.872 40.9854 115.872 40.9854C111.761 38.5983 108.444 39.7292 108.444 39.7292C108.278 39.7886 108.097 39.7886 107.93 39.7292C107.499 39.5859 108.264 38.9683 108.264 38.9683C110.308 37.2585 111.377 37.7747 111.377 37.7747C115.344 38.0403 117.086 40.135 117.086 40.135C118.468 41.6269 118.111 42.7877 117.925 43.1189C117.249 44.3691 115.648 44.399 115.648 44.399C115.397 44.399 115.178 44.4199 114.986 44.4229C115.122 44.6041 115.23 44.8054 115.305 45.0196C115.6 45.9924 118.631 50.5756 118.631 50.5756L118.622 50.5577ZM155.75 44.8257C155.75 44.8257 157.921 46.6369 155.227 46.5414C155.227 46.5414 154.705 46.5832 154.386 45.4941C154.386 45.4941 153.458 43.3576 153.526 42.549C153.168 42.978 152.869 43.4549 152.64 43.9663C152.513 44.2892 152.351 44.5973 152.159 44.8854C152.048 45.0563 151.92 45.2152 151.778 45.3598C150.596 46.4758 150.472 45.0614 150.472 45.0614C150.23 43.847 150.844 41.9015 150.844 41.9015C151.293 40.5557 151.949 41.1107 151.949 41.1107C152.862 41.3524 152.492 42.2386 152.492 42.2386C152.297 42.916 152.123 42.7698 152.123 42.7698C152.029 42.8552 151.953 42.9601 151.902 43.0775C151.851 43.1949 151.826 43.3219 151.828 43.4501C151.828 43.4501 151.745 44.202 152.076 43.6232C152.33 43.1099 152.811 42.2536 153.166 41.979C153.166 41.979 153.686 41.4211 153.99 41.8806C153.99 41.8806 155.298 44.5422 155.762 44.8346L155.75 44.8257Z" fill="#242E4A"/>
<path d="M149.784 47.1651C150.351 47.1979 150.989 47.2068 151.872 47.2934C152.33 47.3381 153.054 47.3381 153.139 47.6395C153.225 47.9409 152.888 48.1975 152.271 48.3198C152.012 48.3884 151.744 48.4225 151.476 48.4213C151.143 48.4213 150.428 48.4362 150.41 48.0483C150.392 47.8066 149.926 47.8096 149.616 47.7947C148.99 47.7708 149.055 47.5918 149.19 47.3769C149.273 47.2456 149.441 47.1591 149.781 47.1651H149.784Z" fill="#242E4A"/>
<path d="M45.8628 16.78C45.8628 10.1289 40.5466 8.90849 35.0265 8.90849C32.3831 8.90849 29.6955 9.35906 27.6428 10.5347C25.5901 11.7104 24.2079 13.6857 24.0307 16.6696C22.7489 12.2803 19.6684 8.91148 14.3403 8.91148C13.0746 8.87753 11.8213 9.17114 10.6995 9.76443C9.57778 10.3577 8.62483 11.231 7.93125 12.3012H7.84264V9.58882H0.585938V46.1893H8.20002V30.5358H8.28862C9.85692 32.6603 12.0514 33.7584 14.9192 33.7584C18.9507 33.7584 21.7122 31.5831 23.2628 28.4978C24.0484 32.0785 27.1673 33.7584 30.995 33.7584C33.7713 33.7584 36.6804 32.9438 38.6534 30.861C38.7103 31.6169 38.8601 32.3626 39.0994 33.0811H46.7489C45.8628 31.2251 45.8628 29.0528 45.8628 27.0625V16.78ZM12.5446 27.8652C9.09492 27.8652 7.93125 25.1946 7.93125 21.0798C7.93125 16.2369 10.5274 14.7898 12.5889 14.7898C15.947 14.7898 17.1107 18.0929 17.1107 21.0798C17.1107 24.2905 15.947 27.8652 12.5446 27.8652ZM33.8599 28.9842C32.1587 28.9842 30.6819 28.2143 30.6819 26.3166C30.6819 24.4188 32.1144 23.7355 33.8156 23.3327C35.4725 22.8791 37.4424 22.7359 38.5175 22.0645C38.6977 26.9133 37.4868 28.9842 33.8599 28.9842ZM36.5918 18.4868C32.77 19.2716 27.4006 19.185 24.7218 21.969C24.7218 21.9243 24.7218 21.8795 24.7218 21.8347C24.7317 20.1382 24.5101 18.4483 24.0632 16.8128H31.125C31.4853 14.8226 32.8291 13.8707 34.932 13.8707C36.5003 13.8707 38.6032 14.551 38.6032 16.3175C38.6061 17.7766 37.8884 18.2421 36.5918 18.4987V18.4868Z" fill="#242E4A"/>
<path d="M79.4498 18.454L87.9588 9.58882H79.1368L72.1961 17.4156V0.762451H64.582V9.29043C64.0362 9.1829 63.4811 9.13092 62.9251 9.13527C59.6556 9.13527 57.0595 10.7197 55.9372 13.7066H55.8485V9.58882H48.4648V33.0721H56.0789V21.4349C56.0789 18.4928 58.0489 15.8699 61.8116 15.8699C62.7514 15.8825 63.6853 16.023 64.5879 16.2877V33.0631H72.202V25.5586L74.169 23.6131L79.8574 33.0691H89.0398L79.4498 18.454Z" fill="#242E4A"/>
<path d="M97.596 9.58882H105.21V33.0721H97.596V9.58882ZM105.21 6.64968H97.596V0.762451H105.21V6.64968Z" fill="#242E4A"/>
<path d="M107.729 9.58882H115.113V12.7965H115.202C116.59 10.4094 119.726 8.91745 122.503 8.91745C130.25 8.91745 130.876 14.6167 130.876 18.0094V33.0781H123.268V21.7124C123.268 18.4987 123.628 15.2433 119.464 15.2433C116.596 15.2433 115.329 17.6841 115.329 20.2652V33.0691H107.729V9.58882Z" fill="#242E4A"/>
<path d="M133.422 9.58882H140.805V12.7965H140.894C142.282 10.4094 145.419 8.91745 148.195 8.91745C155.942 8.91745 156.568 14.6167 156.568 18.0094V33.0781H148.963V21.7124C148.963 18.4987 149.32 15.2433 145.156 15.2433C142.288 15.2433 141.021 17.6841 141.021 20.2652V33.0691H133.422V9.58882Z" fill="#242E4A"/>
<path d="M89.0043 38.4103H10.2261V46.1923H89.0043V38.4103Z" fill="#242E4A"/>
<path d="M98.358 40.6631C98.6606 40.4347 99.0287 40.3121 99.4065 40.314C100.352 40.314 101.046 41.1227 101.046 42.2237C101.046 43.5217 100.284 44.2975 99.0166 44.2975C98.5317 44.2977 98.0519 44.1961 97.6078 43.9991V38.4013H98.358V40.6631ZM98.358 43.462C98.6058 43.5349 98.862 43.5751 99.12 43.5814C99.2789 43.5822 99.4362 43.5499 99.5821 43.4864C99.728 43.423 99.8594 43.3299 99.9681 43.2128C100.077 43.0957 100.16 42.9573 100.214 42.8061C100.267 42.6549 100.289 42.4942 100.278 42.3341C100.278 41.5255 99.8554 40.9944 99.2204 40.9944C99.0577 40.9973 98.8973 41.0337 98.749 41.1015C98.6008 41.1692 98.4677 41.2668 98.358 41.3882V43.462Z" fill="#242E4A"/>
<path d="M102.413 46.1834H101.577L102.871 43.4024L101.394 40.3886H102.248L103.27 42.549L104.25 40.3886H105.092L102.413 46.1834Z" fill="#242E4A"/>
</svg>
