<?xml version="1.0" encoding="utf-8"?>
<!-- Generator: Adobe Illustrator 23.0.3, SVG Export Plug-In . SVG Version: 6.00 Build 0)  -->
<svg version="1.1" id="Capa_1" xmlns="http://www.w3.org/2000/svg" xmlns:xlink="http://www.w3.org/1999/xlink" x="0px" y="0px"
	 viewBox="0 0 127.7 108.2" style="enable-background:new 0 0 127.7 108.2;" xml:space="preserve">
<style type="text/css">
	.st0{filter:url(#Adobe_OpacityMaskFilter);}
	.st1{fill-rule:evenodd;clip-rule:evenodd;fill:#FFFFFF;}
	.st2{mask:url(#mask-2_1_);fill-rule:evenodd;clip-rule:evenodd;fill:#191D1D;}
	.st3{filter:url(#Adobe_OpacityMaskFilter_1_);}
	.st4{mask:url(#mask-2_2_);fill-rule:evenodd;clip-rule:evenodd;fill:#191D1D;}
	.st5{filter:url(#Adobe_OpacityMaskFilter_2_);}
	.st6{mask:url(#mask-2_3_);fill-rule:evenodd;clip-rule:evenodd;fill:#191D1D;}
	.st7{filter:url(#Adobe_OpacityMaskFilter_3_);}
	.st8{mask:url(#mask-2_4_);fill-rule:evenodd;clip-rule:evenodd;fill:#191D1D;}
	.st9{filter:url(#Adobe_OpacityMaskFilter_4_);}
	.st10{mask:url(#mask-2_5_);fill-rule:evenodd;clip-rule:evenodd;fill:#191D1D;}
	.st11{filter:url(#Adobe_OpacityMaskFilter_5_);}
	.st12{mask:url(#mask-2_6_);fill-rule:evenodd;clip-rule:evenodd;fill:#191D1D;}
	.st13{fill-rule:evenodd;clip-rule:evenodd;fill:#191D1D;}
</style>
<title>PP_vertical_CMYK Copy@1,5x</title>
<desc>Created with Sketch.</desc>
<g id="PP_vertical_CMYK-Copy">
	<g id="PP_stack_RGB" transform="translate(0.000000, 10.000000)">
		<g id="Group-8">
			<g id="Clip-2">
			</g>
			<defs>
				<filter id="Adobe_OpacityMaskFilter" filterUnits="userSpaceOnUse" x="0" y="79.5" width="15.4" height="18.7">
					<feColorMatrix  type="matrix" values="1 0 0 0 0  0 1 0 0 0  0 0 1 0 0  0 0 0 1 0"/>
				</filter>
			</defs>
			<mask maskUnits="userSpaceOnUse" x="0" y="79.5" width="15.4" height="18.7" id="mask-2_1_">
				<g class="st0">
					<polygon id="path-1_1_" class="st1" points="0,-10 127.7,-10 127.7,98.2 0,98.2 					"/>
				</g>
			</mask>
			<path id="Fill-1" class="st2" d="M10.8,86.4c0-1.7-1.3-2.8-3.4-2.8H4.6v5.8h2.8C9.5,89.4,10.8,88.2,10.8,86.4z M15.4,86.4
				c0,4.4-3.2,7.1-8.3,7.1H4.6v4.7H0V79.5h7.5C12.4,79.5,15.4,82.2,15.4,86.4L15.4,86.4z"/>
			<defs>
				<filter id="Adobe_OpacityMaskFilter_1_" filterUnits="userSpaceOnUse" x="26.4" y="79.5" width="13.9" height="18.7">
					<feColorMatrix  type="matrix" values="1 0 0 0 0  0 1 0 0 0  0 0 1 0 0  0 0 0 1 0"/>
				</filter>
			</defs>
			<mask maskUnits="userSpaceOnUse" x="26.4" y="79.5" width="13.9" height="18.7" id="mask-2_2_">
				<g class="st3">
					<polygon id="path-1_2_" class="st1" points="0,-10 127.7,-10 127.7,98.2 0,98.2 					"/>
				</g>
			</mask>
			<polyline id="Fill-3" class="st4" points="40.3,94 40.3,98.2 26.4,98.2 26.4,79.5 31.1,79.5 31.1,94 40.3,94 			"/>
			<defs>
				<filter id="Adobe_OpacityMaskFilter_2_" filterUnits="userSpaceOnUse" x="50.3" y="79.5" width="20.3" height="18.7">
					<feColorMatrix  type="matrix" values="1 0 0 0 0  0 1 0 0 0  0 0 1 0 0  0 0 0 1 0"/>
				</filter>
			</defs>
			<mask maskUnits="userSpaceOnUse" x="50.3" y="79.5" width="20.3" height="18.7" id="mask-2_3_">
				<g class="st5">
					<polygon id="path-1_3_" class="st1" points="0,-10 127.7,-10 127.7,98.2 0,98.2 					"/>
				</g>
			</mask>
			<path id="Fill-4" class="st6" d="M62.8,91.1l-2.4-6.3l-2.4,6.3H62.8z M64.3,95h-7.9l-1.2,3.2h-4.9l7.9-18.7h4.4l7.9,18.7h-4.9
				L64.3,95L64.3,95z"/>
			<defs>
				<filter id="Adobe_OpacityMaskFilter_3_" filterUnits="userSpaceOnUse" x="80.9" y="79.5" width="16.2" height="18.7">
					<feColorMatrix  type="matrix" values="1 0 0 0 0  0 1 0 0 0  0 0 1 0 0  0 0 0 1 0"/>
				</filter>
			</defs>
			<mask maskUnits="userSpaceOnUse" x="80.9" y="79.5" width="16.2" height="18.7" id="mask-2_4_">
				<g class="st7">
					<polygon id="path-1_4_" class="st1" points="0,-10 127.7,-10 127.7,98.2 0,98.2 					"/>
				</g>
			</mask>
			<polyline id="Fill-5" class="st8" points="97,94.1 97,98.2 80.9,98.2 80.9,96 90.1,83.6 81.3,83.6 81.3,79.5 96.9,79.5 
				96.9,81.7 88,94.1 97,94.1 			"/>
			<defs>
				<filter id="Adobe_OpacityMaskFilter_4_" filterUnits="userSpaceOnUse" x="107.4" y="79.5" width="20.3" height="18.7">
					<feColorMatrix  type="matrix" values="1 0 0 0 0  0 1 0 0 0  0 0 1 0 0  0 0 0 1 0"/>
				</filter>
			</defs>
			<mask maskUnits="userSpaceOnUse" x="107.4" y="79.5" width="20.3" height="18.7" id="mask-2_5_">
				<g class="st9">
					<polygon id="path-1_5_" class="st1" points="0,-10 127.7,-10 127.7,98.2 0,98.2 					"/>
				</g>
			</mask>
			<path id="Fill-6" class="st10" d="M120,91.1l-2.4-6.3l-2.4,6.3H120z M121.5,95h-7.9l-1.2,3.2h-4.9l7.9-18.7h4.4l7.9,18.7h-4.9
				L121.5,95L121.5,95z"/>
			<defs>
				<filter id="Adobe_OpacityMaskFilter_5_" filterUnits="userSpaceOnUse" x="47.8" y="-10" width="32" height="49.7">
					<feColorMatrix  type="matrix" values="1 0 0 0 0  0 1 0 0 0  0 0 1 0 0  0 0 0 1 0"/>
				</filter>
			</defs>
			<mask maskUnits="userSpaceOnUse" x="47.8" y="-10" width="32" height="49.7" id="mask-2_6_">
				<g class="st11">
					<polygon id="path-1_6_" class="st1" points="0,-10 127.7,-10 127.7,98.2 0,98.2 					"/>
				</g>
			</mask>
			<path id="Fill-7" class="st12" d="M70.5-0.2v9.6c1.7-1.2,2.7-2.5,3.1-4C74,3.2,72.9,1.1,70.5-0.2z M62.4-1.5
				C62.3-1.5,62.3-1.5,62.4-1.5c-0.5,0-0.5,0.2-0.5,0.3l0,14.5c1.6-0.6,2.9-1.1,3.7-1.4c0.1-0.1,0.3-0.1,0.4-0.2l0-13.1
				c-0.3,0-0.6,0-0.8-0.1c0,0-0.7,0-1.1,0C63.8-1.5,62.6-1.5,62.4-1.5z M57.3,20.3c-1.7,1.2-2.7,2.5-3.1,4c-0.5,2.3,0.6,4.3,3.1,5.6
				L57.3,20.3z M62.6,31.1c0,0,0.7,0,1.1,0c0.3,0,1.5,0,1.7,0c0.5,0,0.5-0.2,0.5-0.3l0-14.5c-0.6,0.2-1,0.4-1.5,0.6
				c-0.8,0.3-1.6,0.6-2.5,1l-0.1,0l0,13.1C62.1,31.1,62.4,31.1,62.6,31.1z M57.7,39.7c-0.1,0-0.2,0-0.2-0.1
				c-0.1-0.1-0.2-0.2-0.2-0.4l0-7.3c-1.2-0.3-2.3-0.7-3.5-1.2c-3.5-1.5-5.7-3.9-6-6.5c-0.2-2.2,0.9-4.3,3.3-6c1-0.7,3.1-1.8,6.1-3.1
				l0-14.4l0-3.4c0-0.1,0-0.2,0.1-0.3c0.1-0.1,0.2-0.1,0.3-0.1c0,0,0,0,0,0c2.3,0,3.6,0,4.1,0L62-3c0.1,0,0.2,0,0.2,0
				c1.3,0,2.5,0.1,3.7,0.1l0-1.7l0,0l0-3.2c0-0.2,0.1-0.3,0.2-0.4l3.6-1.8c0.1-0.1,0.3-0.1,0.5,0c0.1,0.1,0.2,0.2,0.2,0.4l0,7.3
				c1.2,0.3,2.3,0.7,3.5,1.2c3.4,1.5,5.6,3.8,5.9,6.3c0.3,2.2-0.9,4.4-3.2,6.2c-1.9,1.4-4.2,2.4-6.1,3.2l-0.1,0l0,17.7
				c0,0.1,0,0.2-0.1,0.3c-0.1,0.1-0.2,0.1-0.3,0.1c0,0,0,0,0,0c-2.3,0-3.7,0-4.1,0l-0.2,0c-0.1,0-0.2,0-0.2,0
				c-1.3,0-2.5-0.1-3.7-0.1l0,4.9c0,0.2-0.1,0.3-0.3,0.4L58,39.7C57.9,39.7,57.8,39.7,57.7,39.7L57.7,39.7z"/>
		</g>
		<path id="Fill-9" class="st13" d="M3.5,62.7h4c1.4,0,2.5-0.4,3.4-1.1c0.9-0.8,1.3-1.7,1.3-3c0-1.1-0.4-2.1-1.3-2.8
			c-0.9-0.7-2-1.1-3.4-1.1h-4V62.7z M0.9,70.8V52.4h6.7c2.2,0,3.9,0.6,5.2,1.7c1.3,1.1,2,2.6,2,4.5c0,1.9-0.7,3.5-2.1,4.7
			c-1.4,1.2-3.2,1.8-5.4,1.8H3.5v5.7H0.9L0.9,70.8z"/>
		<path id="Fill-10" class="st13" d="M41.2,63.7h7.1l-3.6-8.3L41.2,63.7z M35.3,70.8l8.2-18.5h2.4l8.2,18.5h-2.8L49.3,66h-9.2
			l-2.1,4.7H35.3L35.3,70.8z"/>
		<path id="Fill-11" class="st13" d="M76.6,62h4.5c1.3,0,2.4-0.3,3.3-1c0.9-0.7,1.3-1.5,1.3-2.7c0-1.1-0.4-2-1.3-2.6
			c-0.9-0.7-2-1-3.3-1h-4.5V62z M74,70.8V52.4h7.2c2.1,0,3.8,0.5,5.1,1.6c1.3,1.1,2,2.5,2,4.4c0,1.4-0.4,2.6-1.2,3.6
			c-0.8,1-1.9,1.7-3.2,2.1l5.3,6.7H86l-5-6.3h-4.4v6.3H74L74,70.8z"/>
		<polyline id="Fill-12" class="st13" points="110.4,70.8 110.4,52.4 113,52.4 113,62.7 122.7,52.4 125.8,52.4 118.1,60.7 
			126.7,70.8 123.4,70.8 116.3,62.6 113,66.2 113,70.8 110.4,70.8 		"/>
	</g>
</g>
</svg>
