<?xml version="1.0" encoding="utf-8"?>
<svg xmlns="http://www.w3.org/2000/svg" id="Capa_1" data-name="Capa 1" version="1.1" viewBox="0 0 2000 1300">
  <defs>
    <style>
      .cls-1 {
        fill: #4f4f4f;
        stroke-width: 0px;
      }
    </style>
  </defs>
  <path class="cls-1" d="M635.39,1027.18h-22c-1.38,0-2.63-.56-3.54-1.46s-1.46-2.15-1.46-3.54v-124.59s0-124.59,0-124.59c0-39.99,16.06-76.44,42.12-102.94s62.12-43.05,102.1-43.23c41.36-.18,78.89,16.52,106.09,43.6,27.19,27.08,44.05,64.54,44.05,105.86v10.08c0,39.5-16.01,75.27-41.9,101.15-25.89,25.89-61.65,41.9-101.15,41.9h-76.3c-1.38,0-2.63-.56-3.54-1.46s-1.46-2.15-1.46-3.54v-22c0-1.38.56-2.63,1.46-3.54s2.15-1.46,3.54-1.46h76.3c30.67,0,58.43-12.43,78.53-32.53s32.53-47.86,32.53-78.53v-10.08c0-32.49-13.26-61.94-34.65-83.22s-50.91-34.41-83.44-34.24c-31.14.16-59.21,13.09-79.49,33.76s-32.78,49.09-32.78,80.23v124.67s0,124.67,0,124.67c0,1.38-.56,2.63-1.46,3.54s-2.15,1.46-3.54,1.46Z"/>
  <path class="cls-1" d="M960.9,929.44h-22c-1.38,0-2.63-.56-3.54-1.46s-1.46-2.15-1.46-3.54v-176.12c0-33.55,13.6-63.92,35.58-85.9,21.98-21.98,52.36-35.58,85.9-35.58h38.14c1.38,0,2.63.56,3.54,1.46s1.46,2.15,1.46,3.54v22c0,1.38-.56,2.63-1.46,3.54s-2.15,1.46-3.54,1.46h-38.14c-24.71,0-47.08,10.02-63.28,26.21s-26.21,38.57-26.21,63.28v176.12c0,1.38-.56,2.63-1.46,3.54s-2.15,1.46-3.54,1.46Z"/>
  <path class="cls-1" d="M1414.27,929.44h-84.63s-84.63,0-84.63,0c-10.82,0-21.15-3.29-29.73-9.13-8.57-5.83-15.38-14.2-19.13-24.34s-4.26-21.43-1.5-31.5c2.76-10.07,8.67-19.26,17.34-26.27l87-70.34,87-70.34c5.55-4.49,7.56-9.68,8.03-14.18.47-4.5-.6-8.3-1.2-10s-2.16-5.33-5.35-8.53c-3.19-3.2-8.02-5.97-15.16-5.97h-167.64c-1.38,0-2.63-.56-3.54-1.46s-1.46-2.15-1.46-3.54v-22c0-1.38.56-2.63,1.46-3.54s2.15-1.46,3.54-1.46h167.64c11.54,0,22.29,3.52,31.11,9.75s15.72,15.19,19.57,26.08c3.85,10.88,4.12,22.19,1.18,32.58-2.94,10.4-9.08,19.89-18.06,27.14l-87,70.34-87,70.34c-4.93,3.99-6.71,8.6-7.13,12.59-.42,3.99.53,7.37,1.06,8.88.53,1.51,1.92,4.73,4.76,7.57s7.12,5.31,13.46,5.31h170.01c1.38,0,2.63.56,3.54,1.46s1.46,2.15,1.46,3.54v22c0,1.38-.56,2.63-1.46,3.54s-2.15,1.46-3.54,1.46Z"/>
  <path class="cls-1" d="M1156.66,929.44h-11s-11,0-11,0c-1.38,0-2.63-.56-3.54-1.46s-1.46-2.15-1.46-3.54v-292.61c0-1.38.56-2.63,1.46-3.54.9-.9,2.15-1.46,3.54-1.46h22c1.38,0,2.63.56,3.54,1.46s1.46,2.15,1.46,3.54v292.61c0,1.38-.56,2.63-1.46,3.54-.9.9-2.15,1.46-3.54,1.46Z"/>
  <path class="cls-1" d="M1706.72,929.44h-116.83c-38.51,0-73.37-15.61-98.6-40.84s-40.84-60.09-40.84-98.6v-24.72c0-38.23,15.49-72.84,40.55-97.89,25.05-25.05,59.66-40.55,97.89-40.55h37.79c27.98,0,53.35,11.33,71.78,29.65,18.43,18.32,29.91,43.62,30.1,71.55.14,20.5-8.22,39.14-21.74,52.66-13.52,13.51-32.2,21.9-52.7,21.9h-64.36s-64.36,0-64.36,0c-1.38,0-2.63-.56-3.54-1.46s-1.46-2.15-1.46-3.54v-22c0-1.38.56-2.63,1.46-3.54.9-.9,2.15-1.46,3.54-1.46h64.6s64.6,0,64.6,0c11.56,0,22.05-4.68,29.64-12.24,7.6-7.57,12.31-18.02,12.32-29.58.01-19.28-7.82-36.76-20.48-49.42-12.66-12.66-30.13-20.51-49.41-20.51h-37.79c-29.39,0-56,11.91-75.26,31.17-19.26,19.26-31.17,45.87-31.17,75.26v24.72c0,29.67,12.03,56.53,31.47,75.97,19.44,19.44,46.3,31.47,75.97,31.47h116.83c1.38,0,2.63.56,3.54,1.46s1.46,2.15,1.46,3.54v22c0,1.38-.56,2.63-1.46,3.54s-2.15,1.46-3.54,1.46Z"/>
  <g>
    <path class="cls-1" d="M962.24,1102.93h-28.33v-80.21h28.81c4.94,0,9.35.47,13.22,1.4,3.88.94,7.22,2.34,10.03,4.21,2.81,1.87,4.92,4.13,6.32,6.78s2.11,5.69,2.11,9.11c0,2.19-.25,4.21-.76,6.07s-1.27,3.54-2.29,5.05c-1.02,1.51-2.23,2.84-3.65,3.98s-3.03,2.08-4.84,2.84c-1.81.76-3.78,1.32-5.9,1.7s-4.4.57-6.83.57v-2.63c2.47,0,4.8.15,6.99.45s4.24.75,6.16,1.34c1.91.6,3.62,1.39,5.11,2.39s2.78,2.19,3.86,3.59c1.08,1.4,1.88,3.03,2.42,4.9s.81,3.98.81,6.34c0,2.03-.21,3.91-.63,5.63s-1.05,3.29-1.88,4.71c-.84,1.41-1.85,2.69-3.03,3.83s-2.55,2.13-4.08,2.99c-1.53.86-3.18,1.6-4.95,2.23s-3.64,1.14-5.63,1.54c-1.99.4-4.08.7-6.25.9s-4.43.3-6.78.3ZM947.17,1033.84v23.67h15.9c3.19,0,5.93-.25,8.23-.75,2.3-.5,4.16-1.24,5.57-2.24,1.41-1,2.47-2.27,3.18-3.82s1.06-3.39,1.06-5.5c0-1.91-.39-3.58-1.17-5.01s-1.94-2.61-3.5-3.54c-1.55-.94-3.42-1.64-5.59-2.11s-4.65-.7-7.44-.7h-16.26ZM947.17,1068.62v23.31h15.66c1.31,0,2.59-.04,3.84-.13s2.46-.22,3.63-.4c1.17-.18,2.28-.42,3.32-.72s2-.66,2.9-1.08c.9-.42,1.69-.93,2.39-1.52s1.29-1.29,1.79-2.06c.5-.78.87-1.68,1.12-2.7s.37-2.18.37-3.45c0-2.07-.39-3.83-1.17-5.29s-1.94-2.6-3.5-3.44c-1.55-.84-3.54-1.46-5.95-1.88-2.41-.42-5.25-.63-8.52-.63h-15.9Z"/>
    <path class="cls-1" d="M1021.77,1067.19l-9.62-22.23-9.62-22.23h14.23l8.55,20.44,8.55,20.44c.28.6.55,1.13.82,1.58s.53.85.79,1.17c.26.32.56.56.91.72s.74.24,1.18.24c.4,0,.77-.08,1.1-.24s.65-.4.93-.72c.28-.32.55-.71.81-1.17s.51-.99.75-1.58l8.55-20.44,8.55-20.44h14.23l-9.68,22.23-9.68,22.23c-.88,1.95-1.87,3.67-2.99,5.14-1.12,1.47-2.35,2.71-3.7,3.71-1.36,1-2.78,1.74-4.27,2.24s-3.06.75-4.69.75-3.19-.25-4.68-.75-2.89-1.25-4.23-2.24c-1.34-1-2.57-2.23-3.69-3.71s-2.15-3.19-3.06-5.14ZM1044.12,1102.93h-13.27v-32.4h13.27v32.4Z"/>
    <path class="cls-1" d="M1147.64,1102.93h-13.15v-80.21h28.57c2.87,0,5.6.22,8.19.67s5.04,1.12,7.35,2.02c2.31.9,4.38,2.02,6.22,3.38s3.43,2.94,4.78,4.75c1.35,1.81,2.37,3.86,3.05,6.14s1.02,4.8,1.02,7.55c0,2.27-.26,4.4-.78,6.4-.52,1.99-1.3,3.85-2.33,5.56-1.04,1.71-2.28,3.24-3.72,4.57s-3.09,2.48-4.95,3.44-3.88,1.67-6.08,2.15-4.58.72-7.13.72l-1.85-1.43-1.85-1.43c2.35,0,4.47.2,6.37.6s3.56,1,4.99,1.79c1.43.8,2.76,1.78,3.99,2.94,1.23,1.17,2.35,2.52,3.36,4.05,1.02,1.53,2.05,3.25,3.09,5.16,1.05,1.9,2.11,3.99,3.18,6.26l3.71,7.47,3.71,7.47h-14.34l-3.41-6.81-3.41-6.81c-.72-1.51-1.46-2.92-2.23-4.23s-1.56-2.51-2.38-3.6c-.82-1.1-1.71-2.07-2.68-2.93s-2.01-1.59-3.12-2.21c-1.12-.62-2.41-1.08-3.89-1.39s-3.13-.46-4.96-.46h-10.76v-11.83h16.74c1.67,0,3.25-.13,4.72-.4s2.85-.67,4.13-1.21c1.27-.54,2.42-1.21,3.44-2,1.02-.8,1.9-1.72,2.66-2.78.76-1.06,1.32-2.23,1.7-3.51s.57-2.68.57-4.2c0-1.59-.19-3.04-.57-4.33s-.95-2.44-1.7-3.44c-.76-1-1.64-1.86-2.66-2.58-1.02-.73-2.16-1.32-3.44-1.78-1.28-.46-2.63-.8-4.07-1.03s-2.95-.34-4.54-.34h-15.42l-.06,33.95-.06,33.95Z"/>
    <path class="cls-1" d="M1206.58,1102.93l10.94-35.03,10.94-35.03c.6-1.99,1.4-3.72,2.42-5.18s2.24-2.67,3.68-3.6c1.43-.94,2.93-1.64,4.48-2.11s3.17-.7,4.84-.7,3.42.23,5.01.7,3.08,1.17,4.5,2.11c1.41.94,2.62,2.14,3.63,3.6s1.81,3.19,2.41,5.18l10.88,35.03,10.88,35.03h-13.51l-9.74-33.11-9.74-33.11c-.36-1.16-.89-2.02-1.58-2.6s-1.56-.87-2.6-.87-1.9.29-2.6.87-1.22,1.44-1.58,2.6l-9.86,33.11-9.86,33.11h-13.51ZM1267.78,1083.92l-23.37.06-23.37.06v-11.95h46.74v11.84Z"/>
    <path class="cls-1" d="M1367.24,1062.65c0,3.11-.27,6.06-.82,8.86-.55,2.8-1.37,5.44-2.47,7.93-1.1,2.49-2.41,4.8-3.95,6.92s-3.29,4.06-5.26,5.81c-1.97,1.75-4.11,3.3-6.43,4.63s-4.79,2.46-7.44,3.38c-2.65.92-5.41,1.6-8.29,2.06s-5.87.69-8.98.69h-27.73v-80.21h28.33c4.3,0,8.34.41,12.1,1.24,3.77.83,7.26,2.07,10.49,3.72,3.23,1.65,6.1,3.64,8.61,5.96s4.66,4.98,6.46,7.96,3.14,6.24,4.03,9.74,1.34,7.27,1.34,11.3ZM1353.62,1062.65c0-2.79-.31-5.39-.94-7.81-.63-2.42-1.57-4.66-2.82-6.71-1.26-2.05-2.74-3.88-4.47-5.48-1.72-1.6-3.68-2.98-5.87-4.14-2.19-1.16-4.56-2.02-7.11-2.6-2.55-.58-5.28-.87-8.19-.87h-15.06v55.83h14.46c2.15,0,4.21-.16,6.19-.48s3.85-.8,5.65-1.43c1.79-.64,3.48-1.42,5.07-2.34,1.58-.93,3.06-2,4.44-3.21,1.37-1.21,2.6-2.56,3.66-4.05s1.98-3.1,2.73-4.86c.76-1.75,1.32-3.62,1.7-5.59.38-1.97.57-4.05.57-6.25Z"/>
    <path class="cls-1" d="M1384.69,1022.72h13.27v80.21h-13.27v-80.21Z"/>
    <path class="cls-1" d="M1445.3,1104.25c-3.43,0-6.67-.37-9.71-1.11s-5.91-1.84-8.58-3.32c-2.67-1.47-4.97-3.27-6.9-5.38-1.93-2.11-3.5-4.54-4.69-7.29l5.5-2.75,5.5-2.75c.76,1.67,1.73,3.15,2.91,4.42s2.59,2.35,4.2,3.23c1.61.88,3.4,1.53,5.36,1.97s4.1.66,6.41.66c1.51,0,2.94-.11,4.29-.33s2.61-.55,3.78-.99c1.17-.44,2.23-.99,3.17-1.64s1.75-1.42,2.45-2.3c.7-.88,1.22-1.84,1.57-2.9s.52-2.2.52-3.44c0-1.43-.19-2.69-.57-3.77s-.95-1.97-1.7-2.69c-.76-.72-1.65-1.35-2.68-1.9s-2.19-1.01-3.48-1.39c-1.3-.38-2.66-.73-4.08-1.06s-2.91-.63-4.47-.91c-1.52-.28-3.05-.6-4.6-.97s-3.13-.78-4.72-1.24c-1.59-.46-3.13-1.01-4.62-1.67s-2.91-1.41-4.29-2.27c-1.37-.86-2.61-1.84-3.71-2.96s-2.05-2.36-2.87-3.74c-.82-1.37-1.43-2.94-1.84-4.71-.41-1.76-.61-3.72-.61-5.87,0-2.27.3-4.42.91-6.44s1.52-3.92,2.73-5.69c1.22-1.77,2.65-3.36,4.32-4.77,1.66-1.4,3.55-2.63,5.66-3.66,2.11-1.04,4.33-1.81,6.66-2.33s4.77-.78,7.32-.78c3.15,0,6.14.36,8.98,1.08,2.84.72,5.52,1.79,8.06,3.23,2.53,1.43,4.74,3.21,6.62,5.32,1.88,2.11,3.44,4.56,4.68,7.35l-5.56,2.75-5.56,2.75c-.72-1.55-1.63-2.95-2.75-4.18-1.12-1.24-2.43-2.31-3.94-3.23-1.52-.92-3.19-1.6-5.02-2.06-1.83-.46-3.83-.69-5.98-.69-1.31,0-2.56.12-3.74.34s-2.28.57-3.32,1.03c-1.04.46-1.97,1.01-2.81,1.64s-1.57,1.36-2.21,2.18c-.64.82-1.12,1.7-1.43,2.65s-.48,1.96-.48,3.03c0,1.36.2,2.56.61,3.62s1.02,1.96,1.84,2.72c.82.76,1.76,1.43,2.82,2s2.26,1.07,3.57,1.46c1.31.4,2.7.78,4.15,1.14s2.98.7,4.57,1.02c1.51.28,3.04.6,4.59.97s3.1.78,4.68,1.24c1.57.46,3.08,1.02,4.53,1.67s2.82,1.41,4.14,2.27c1.31.86,2.5,1.85,3.57,2.97s2.01,2.39,2.82,3.78c.82,1.4,1.43,2.98,1.84,4.75s.61,3.74.61,5.89c0,2.35-.32,4.56-.97,6.63-.65,2.07-1.62,4-2.91,5.8-1.3,1.79-2.81,3.4-4.56,4.81-1.74,1.41-3.71,2.64-5.9,3.68-2.19,1.04-4.51,1.81-6.96,2.33s-5.03.78-7.74.78Z"/>
    <path class="cls-1" d="M1516.18,1104.25c-3.43,0-6.67-.37-9.71-1.11s-5.91-1.84-8.58-3.32c-2.67-1.47-4.97-3.27-6.9-5.38s-3.5-4.54-4.69-7.29l5.5-2.75,5.5-2.75c.76,1.67,1.73,3.15,2.91,4.42s2.59,2.35,4.2,3.23c1.61.88,3.4,1.53,5.36,1.97s4.1.66,6.41.66c1.51,0,2.94-.11,4.29-.33s2.61-.55,3.78-.99c1.17-.44,2.23-.99,3.17-1.64s1.75-1.42,2.45-2.3c.7-.88,1.22-1.84,1.57-2.9s.52-2.2.52-3.44c0-1.43-.19-2.69-.57-3.77s-.95-1.97-1.7-2.69c-.76-.72-1.65-1.35-2.68-1.9s-2.19-1.01-3.48-1.39c-1.3-.38-2.66-.73-4.08-1.06s-2.91-.63-4.47-.91c-1.52-.28-3.05-.6-4.6-.97s-3.13-.78-4.72-1.24c-1.59-.46-3.13-1.01-4.62-1.67s-2.91-1.41-4.29-2.27c-1.37-.86-2.61-1.84-3.71-2.96s-2.05-2.36-2.87-3.74c-.82-1.37-1.43-2.94-1.84-4.71-.41-1.76-.61-3.72-.61-5.87,0-2.27.3-4.42.91-6.44s1.52-3.92,2.73-5.69c1.22-1.77,2.65-3.36,4.32-4.77,1.66-1.4,3.55-2.63,5.66-3.66,2.11-1.04,4.33-1.81,6.66-2.33,2.33-.52,4.77-.78,7.32-.78,3.15,0,6.14.36,8.98,1.08,2.84.72,5.52,1.79,8.06,3.23,2.53,1.43,4.74,3.21,6.62,5.32,1.88,2.11,3.44,4.56,4.68,7.35l-5.56,2.75-5.56,2.75c-.72-1.55-1.63-2.95-2.75-4.18-1.12-1.24-2.43-2.31-3.94-3.23-1.52-.92-3.19-1.6-5.02-2.06-1.83-.46-3.83-.69-5.98-.69-1.31,0-2.56.12-3.74.34s-2.28.57-3.32,1.03c-1.04.46-1.97,1.01-2.81,1.64-.84.64-1.57,1.36-2.21,2.18-.64.82-1.12,1.7-1.43,2.65s-.48,1.96-.48,3.03c0,1.36.2,2.56.61,3.62s1.02,1.96,1.84,2.72c.82.76,1.76,1.43,2.82,2s2.26,1.07,3.57,1.46c1.31.4,2.7.78,4.15,1.14s2.98.7,4.57,1.02c1.51.28,3.04.6,4.59.97s3.1.78,4.68,1.24c1.57.46,3.08,1.02,4.53,1.67s2.82,1.41,4.14,2.27c1.31.86,2.5,1.85,3.57,2.97s2.01,2.39,2.82,3.78c.82,1.4,1.43,2.98,1.84,4.75s.61,3.74.61,5.89c0,2.35-.32,4.56-.97,6.63-.65,2.07-1.62,4-2.91,5.8-1.3,1.79-2.81,3.4-4.56,4.81-1.74,1.41-3.71,2.64-5.9,3.68-2.19,1.04-4.51,1.81-6.96,2.33s-5.03.78-7.74.78Z"/>
    <path class="cls-1" d="M1596.99,1104.37c-2.91,0-5.72-.26-8.43-.78s-5.32-1.3-7.83-2.33c-2.51-1.04-4.86-2.29-7.05-3.75s-4.22-3.14-6.1-5.04c-1.87-1.89-3.54-3.94-5.01-6.16-1.46-2.21-2.72-4.58-3.78-7.11-1.06-2.53-1.85-5.16-2.38-7.9-.53-2.74-.79-5.58-.79-8.53s.26-5.72.79-8.43c.53-2.71,1.32-5.32,2.38-7.83,1.06-2.51,2.32-4.86,3.78-7.05,1.46-2.19,3.13-4.22,5.01-6.1,1.87-1.87,3.9-3.54,6.1-5.01s4.54-2.72,7.05-3.78c2.51-1.06,5.12-1.85,7.83-2.37,2.71-.53,5.52-.79,8.43-.79s5.71.26,8.41.79,5.3,1.32,7.79,2.37c2.49,1.06,4.83,2.32,7.01,3.78,2.18,1.46,4.21,3.13,6.08,5.01,1.87,1.87,3.54,3.91,5.01,6.1,1.46,2.19,2.72,4.54,3.78,7.05,1.06,2.51,1.85,5.12,2.38,7.83.53,2.71.79,5.52.79,8.43s-.26,5.79-.79,8.53c-.53,2.74-1.32,5.37-2.38,7.9-1.06,2.53-2.32,4.9-3.78,7.11-1.46,2.21-3.13,4.26-5.01,6.16-1.87,1.89-3.9,3.57-6.08,5.04-2.18,1.46-4.52,2.71-7.01,3.75-2.49,1.04-5.09,1.81-7.79,2.33s-5.5.78-8.41.78ZM1596.99,1091.81c1.91,0,3.77-.19,5.56-.57s3.53-.95,5.2-1.7c1.67-.76,3.24-1.65,4.71-2.67s2.82-2.19,4.08-3.48c1.26-1.29,2.38-2.71,3.36-4.24s1.84-3.19,2.56-4.96c.72-1.77,1.25-3.61,1.61-5.51s.54-3.87.54-5.9-.18-3.99-.54-5.87-.9-3.69-1.61-5.42c-.72-1.73-1.57-3.36-2.56-4.89s-2.11-2.94-3.36-4.26c-1.26-1.31-2.61-2.48-4.08-3.51s-3.03-1.91-4.71-2.65c-1.67-.74-3.41-1.29-5.2-1.66s-3.65-.55-5.56-.55-3.84.18-5.65.55-3.56.92-5.23,1.66c-1.67.74-3.24,1.62-4.71,2.65s-2.82,2.2-4.08,3.51c-1.26,1.32-2.38,2.74-3.36,4.26-.99,1.52-1.84,3.15-2.55,4.89-.72,1.73-1.26,3.54-1.61,5.42-.36,1.88-.54,3.84-.54,5.87s.18,4,.54,5.9c.36,1.9.9,3.74,1.61,5.51.72,1.77,1.57,3.43,2.55,4.96.99,1.53,2.11,2.95,3.36,4.24,1.26,1.3,2.62,2.46,4.08,3.48,1.46,1.03,3.03,1.92,4.71,2.67,1.67.76,3.42,1.32,5.23,1.7s3.7.57,5.65.57Z"/>
    <path class="cls-1" d="M1664.82,1102.93h-12.55v-69.93c0-1.23.12-2.38.37-3.44s.62-2.02,1.12-2.9c.5-.88,1.09-1.65,1.76-2.32s1.44-1.23,2.3-1.69c.86-.46,1.75-.8,2.67-1.03s1.89-.34,2.88-.34c1.27,0,2.45.12,3.54.36s2.08.6,2.97,1.08c.9.48,1.72,1.12,2.47,1.91s1.42,1.75,2.02,2.87l16.86,31.02,16.86,31.02c.04.2.08.37.12.52s.08.27.12.37c.04.1.1.17.18.22s.18.07.3.07c.08,0,.14,0,.19-.03s.08-.05.11-.09c.02-.04.03-.09.04-.15s.01-.13.01-.21v-67.54h12.55v70.05c0,1.24-.13,2.38-.39,3.42s-.65,2-1.16,2.85c-.52.86-1.12,1.62-1.79,2.27s-1.43,1.21-2.27,1.67c-.84.46-1.7.8-2.6,1.03s-1.82.34-2.78.34c-1.16,0-2.26-.12-3.32-.37s-2.06-.62-3.02-1.12c-.96-.5-1.82-1.14-2.6-1.93s-1.46-1.72-2.06-2.79l-16.8-31.08-16.8-31.08c-.04-.2-.08-.37-.12-.51s-.08-.25-.12-.33c-.04-.08-.1-.14-.18-.18s-.18-.06-.3-.06c-.08,0-.16.01-.22.04s-.13.07-.19.14c-.06.06-.11.14-.14.25s-.04.24-.04.4v67.18Z"/>
  </g>
  <path class="cls-1" d="M704.55,173.94h0c-74.14,3.99-167.16,43.62-224.11,148.23-55.41,102.15-143.37,280.64-203.54,445.76-35.31,96.92-51.11,238.55,44.52,281.56,4.14,1.84,8.44,3.38,12.59,4.45,5.68,1.23,11.21,1.69,16.89,1.54,48.51-1.54,90.41-44.85,94.71-103.99,3.99-53.61-13.05-135.48-15.66-172.96-2.15-31.95-18.42-96.31,17.04-160.52,4.3-7.68,9.21-14.9,15.04-21.97,30.85-37.02,75.52-42.7,121.42-53.15,75.06-17.2,169.47-15.97,238.23-56.68,22.87-13.67,42.98-31.95,58.33-57.14,71.68-123.81-36.84-262.82-175.45-255.14M731.1,426.16h0c-7.83,6.3-16.89,11.83-26.1,16.74-32.69,17.05-66.93,26.11-100.54,34.1-61.25,14.59-123.26,29.03-167.62,77.11-.31.31-.77.77-1.08,1.23-.31.15-.46.46-.61.61q-.15,0-.15.15c-28.4,31.95-38.53,69.74-41.14,109.67-4.14,62.82,9.82,130.72-1.23,188.93-2.92,15.97-14.12,31.49-28.55,38.55-4.76,2.15-9.82,3.53-15.04,3.69-5.37.15-10.9-.92-16.42-3.53-1.84-.77-3.69-1.84-5.53-2.92-65.7-43.16,14.27-203.99,48.04-278.64,85.96-189.4,155.8-254.37,224.11-291.7,22.72-11.83,46.2-18.43,70.92-19.81.77-.15,1.69-.15,2.46-.15,68.31-2.15,121.73,75.88,58.48,125.96"/>
</svg>
