<?xml version="1.0" encoding="utf-8"?>
<!-- Generator: Adobe Illustrator 23.0.3, SVG Export Plug-In . SVG Version: 6.00 Build 0)  -->
<svg version="1.1" id="Capa_1" xmlns="http://www.w3.org/2000/svg" xmlns:xlink="http://www.w3.org/1999/xlink" x="0px" y="0px"
	 viewBox="0 0 128 81.3" style="enable-background:new 0 0 128 81.3;" xml:space="preserve">
<style type="text/css">
	.st0{fill:#131514;}
	.st1{filter:url(#Adobe_OpacityMaskFilter);}
	.st2{fill-rule:evenodd;clip-rule:evenodd;fill:#FFFFFF;}
	.st3{mask:url(#mask-2_1_);fill:#131514;}
	.st4{filter:url(#Adobe_OpacityMaskFilter_1_);}
	.st5{mask:url(#mask-4_1_);fill:#131514;}
	.st6{filter:url(#Adobe_OpacityMaskFilter_2_);}
	.st7{mask:url(#mask-6_1_);}
</style>
<title>RAD COLLECTION LOGO RGB@1,5x</title>
<desc>Created with Sketch.</desc>
<g id="RAD-COLLECTION-LOGO-RGB">
	<g transform="translate(0.000000, 24.000000)">
		<path id="Fill-1" class="st0" d="M51.7-4.8l-9,12.5h4.1l8.5-11.9H68v4.8c1,0.7,2.1,1.2,3.3,1.5v-19.6c-1.2,0.3-2.3,0.8-3.3,1.4
			v8.8h-4.5v0H57v0h-2.3c-4.4,0-7.5-2.4-7.5-6.3c0-3.8,2.8-6.1,7.5-6.1h5.8c0.1-0.1,0.1-0.1,0.2-0.2c1.1-1.2,2.4-2.2,3.7-3h-10
			c-6.4,0-10.6,3.6-10.6,9.2C43.7-8.7,47.1-5.7,51.7-4.8"/>
		<path id="Fill-2" class="st0" d="M73.7-23.5c-7.9,0-13.8,6.1-14.7,13.9h3.4c0.8-6.2,5.3-10.7,11.2-10.7c4,0,6.7,1.8,9.2,4.2
			l2.3-2.5C82.2-21.5,79-23.5,73.7-23.5"/>
		<path id="Fill-3" class="st0" d="M83.1,0.6C80.3,3.4,77.6,5,73.6,5c-4.5,0-8.2-2.7-10.1-6.8h-3.7c2.1,5.9,7.2,10,13.7,10
			c5.3,0,8.7-2.1,11.7-5.4L83.1,0.6"/>
		<path id="Fill-4" class="st0" d="M23.5,21.3l-7.7,18.6h3.5l1.8-4.4H29l1.7,4.4h3.6l-7.7-18.6H23.5z M27.7,32.3h-5.4l2.7-6.5
			L27.7,32.3L27.7,32.3z"/>
		<path id="Fill-5" class="st0" d="M42.8,21.4h-6.6v18.5h6.6c5.4,0,9.4-3.9,9.4-9.3C52.2,25.3,48.2,21.4,42.8,21.4 M48.6,30.7
			c0,3.5-2.3,5.9-5.8,5.9h-3.2V24.7h3.2C46.2,24.7,48.6,27.2,48.6,30.7"/>
		<path id="Fill-6" class="st0" d="M100.5,21.1c-5.3,0-9.2,4.1-9.2,9.6c0,5.4,3.9,9.5,9.2,9.5c5.3,0,9.2-4.1,9.2-9.6
			C109.7,25.2,105.8,21.1,100.5,21.1 M106.1,30.7c0,3.5-2.4,6.2-5.6,6.2c-3.2,0-5.7-2.7-5.7-6.3c0-3.5,2.4-6.2,5.6-6.2
			C103.7,24.4,106.1,27.1,106.1,30.7"/>
		<path id="Fill-7" class="st0" d="M14.6,27.4c0-3.7-2.5-5.9-6.6-5.9H0.2v18.5h3.4v-6.3h3.5l4.2,6.3h4L10.6,33
			C13.2,32.1,14.6,30.1,14.6,27.4 M11.2,27.5c0,1.8-1.3,2.8-3.4,2.8H3.6v-5.7h4.2C10,24.7,11.2,25.7,11.2,27.5"/>
		<polygon id="Fill-8" class="st0" points="55,39.9 58.4,39.9 58.4,21.4 55,21.4 		"/>
		<path id="Fill-9" class="st0" d="M68.9,29c-3.3-0.8-3.9-1.4-3.9-2.7c0-1.2,1-2,2.6-2c1.5,0,3,0.6,4.6,1.8l0.2,0.1l1.8-2.7L74,23.5
			c-1.9-1.6-3.9-2.3-6.4-2.3c-3.6,0-6.1,2.2-6.1,5.5c0,3.4,2.2,4.7,5.9,5.6c3.2,0.8,3.7,1.4,3.7,2.6c0,1.3-1.1,2.1-2.9,2.1
			c-1.9,0-3.5-0.7-5.3-2.3l-0.2-0.1l-2.1,2.6l0.1,0.1c2.1,1.9,4.6,2.9,7.3,2.9c3.9,0,6.3-2.2,6.3-5.6C74.6,31.7,72.9,30.1,68.9,29"
			/>
		<g id="Group-14" transform="translate(0.000000, 44.818991)">
			<g id="Fill-10-Clipped">
				<defs>
					<filter id="Adobe_OpacityMaskFilter" filterUnits="userSpaceOnUse" x="75.7" y="-23.6" width="13.8" height="19">
						<feColorMatrix  type="matrix" values="1 0 0 0 0  0 1 0 0 0  0 0 1 0 0  0 0 0 1 0"/>
					</filter>
				</defs>
				<mask maskUnits="userSpaceOnUse" x="75.7" y="-23.6" width="13.8" height="19" id="mask-2_1_">
					<g class="st1">
						<polygon id="path-1_1_" class="st2" points="0,-23.6 127.8,-23.6 127.8,11.6 0,11.6 						"/>
					</g>
				</mask>
				<path id="Fill-10" class="st3" d="M83.8-15.8c-3.3-0.8-3.9-1.4-3.9-2.7c0-1.2,1-2,2.6-2c1.5,0,3,0.6,4.6,1.8l0.2,0.1l1.8-2.7
					l-0.1-0.1c-1.9-1.6-3.9-2.3-6.4-2.3c-3.6,0-6.1,2.2-6.1,5.5c0,3.4,2.2,4.7,5.9,5.6c3.2,0.8,3.7,1.4,3.7,2.6
					c0,1.3-1.1,2.1-2.9,2.1c-1.9,0-3.5-0.7-5.3-2.3l-0.2-0.1l-2.1,2.6l0.1,0.1c2.1,1.9,4.6,2.9,7.3,2.9c3.9,0,6.3-2.2,6.3-5.6
					C89.5-13.2,87.8-14.8,83.8-15.8"/>
			</g>
			<g id="Fill-12-Clipped">
				<defs>
					<filter id="Adobe_OpacityMaskFilter_1_" filterUnits="userSpaceOnUse" x="112.4" y="-23.4" width="15.4" height="18.5">
						<feColorMatrix  type="matrix" values="1 0 0 0 0  0 1 0 0 0  0 0 1 0 0  0 0 0 1 0"/>
					</filter>
				</defs>
				<mask maskUnits="userSpaceOnUse" x="112.4" y="-23.4" width="15.4" height="18.5" id="mask-4_1_">
					<g class="st4">
						<polygon id="path-3_1_" class="st2" points="0,-23.6 127.8,-23.6 127.8,11.6 0,11.6 						"/>
					</g>
				</mask>
				<polyline id="Fill-12" class="st5" points="124.4,-23.4 124.4,-11.3 115.5,-23.3 115.5,-23.4 112.4,-23.4 112.4,-4.9 
					115.7,-4.9 115.7,-17.4 124.9,-5 124.9,-4.9 127.8,-4.9 127.8,-23.4 124.4,-23.4 				"/>
			</g>
			<g id="Fill-13-Clipped">
				<defs>
					<filter id="Adobe_OpacityMaskFilter_2_" filterUnits="userSpaceOnUse" x="0" y="1.8" width="127.8" height="9.9">
						<feColorMatrix  type="matrix" values="1 0 0 0 0  0 1 0 0 0  0 0 1 0 0  0 0 0 1 0"/>
					</filter>
				</defs>
				<mask maskUnits="userSpaceOnUse" x="0" y="1.8" width="127.8" height="9.9" id="mask-6_1_">
					<g class="st6">
						<polygon id="path-5_1_" class="st2" points="0,-23.6 127.8,-23.6 127.8,11.6 0,11.6 						"/>
					</g>
				</mask>
				<path id="Fill-13" class="st7" d="M4.9,11.7c1.8,0,2.9-0.7,3.9-1.7L7.7,8.9c-0.8,0.8-1.6,1.2-2.7,1.2c-1.8,0-3.2-1.5-3.2-3.4v0
					c0-1.9,1.3-3.4,3.1-3.4c1.1,0,1.9,0.5,2.7,1.2l1.1-1.2c-0.9-0.9-2-1.5-3.8-1.5C2,1.8,0,4,0,6.7v0C0,9.5,2.1,11.7,4.9,11.7
					L4.9,11.7z M18.9,11.7c2.9,0,5-2.3,5-4.9v0c0-2.7-2-4.9-5-4.9s-5,2.3-5,4.9v0C13.9,9.4,15.9,11.7,18.9,11.7L18.9,11.7z
					 M18.9,10.1c-1.9,0-3.2-1.5-3.2-3.4v0c0-1.9,1.3-3.4,3.2-3.4c1.9,0,3.2,1.5,3.2,3.4v0C22.1,8.6,20.8,10.1,18.9,10.1L18.9,10.1z
					 M30,11.5h6.7V10h-5V2H30V11.5z M42.5,11.5h6.7V10h-5V2h-1.7V11.5z M55.1,11.5h7.1V10h-5.5V7.5h4.8V5.9h-4.8V3.5h5.4V2h-7.1
					V11.5z M72.7,11.7c1.8,0,2.9-0.7,3.9-1.7l-1.1-1.1c-0.8,0.8-1.6,1.2-2.7,1.2c-1.8,0-3.2-1.5-3.2-3.4v0c0-1.9,1.3-3.4,3.1-3.4
					c1.1,0,1.9,0.5,2.7,1.2l1.1-1.2c-0.9-0.9-2-1.5-3.8-1.5c-2.9,0-4.9,2.2-4.9,4.9v0C67.9,9.5,69.9,11.7,72.7,11.7L72.7,11.7z
					 M84.8,11.5h1.7v-8h3V2h-7.8v1.6h3V11.5z M95.4,11.5h1.7V2h-1.7V11.5z M108.3,11.7c2.9,0,5-2.3,5-4.9v0c0-2.7-2-4.9-5-4.9
					c-2.9,0-5,2.3-5,4.9v0C103.3,9.4,105.4,11.7,108.3,11.7L108.3,11.7z M108.4,10.1c-1.9,0-3.2-1.5-3.2-3.4v0
					c0-1.9,1.3-3.4,3.2-3.4c1.9,0,3.2,1.5,3.2,3.4v0C111.6,8.6,110.2,10.1,108.4,10.1L108.4,10.1z M119.5,11.5h1.7V4.7l5.3,6.8h1.4
					V2h-1.7v6.6L121,2h-1.6V11.5L119.5,11.5z"/>
			</g>
		</g>
	</g>
</g>
</svg>
