<?xml version="1.0" encoding="utf-8"?>
<!-- Generator: Adobe Illustrator 26.5.0, SVG Export Plug-In . SVG Version: 6.00 Build 0)  -->
<svg version="1.1" id="Layer_1" xmlns="http://www.w3.org/2000/svg" xmlns:xlink="http://www.w3.org/1999/xlink" x="0px"
    y="0px" viewBox="0 0 350 110" style="enable-background:new 0 0 350 110;" xml:space="preserve">
    <style type="text/css">
        .st0 {
            fill: #1C2D4F;
        }

        .st1 {
            fill: #FFFFFF;
        }
    </style>
    <g>
        <path class="st0" d="M51.1,89.8c0.4-0.5,0.8-1.3,3-1.8c0,0,73-24.8,170-19.8c0,0,5.5-0.2,4,2.2c-0.9,1.4-2.5,1.5-5.6,1.7
		c0,0-1.1,0.2-5.2,0.1c0,0,9.9,3.9-29.3,3.1c0,0,3.5,3.5-10.9,2.5c0,0-40.2-1.8-121.4,12.9C55.7,90.6,49.3,91.9,51.1,89.8L51.1,89.8
		z" />
        <path class="st0" d="M133.5,9.6c0,0-4.8-6.1-4,0.9c0,0,0.7,14.7-1.8,32.9c-0.3-0.7-0.6-1.4-1.2-2.1c0,0-4.2-5.6-8.9-4.1
		c0,0-6,1.9-9.5,11c0,0-2.5,6.3-1.8,11c0,0-0.2,12.4,14.9,3.6c0,0,1.6-1,3.5-2.9c-0.4,1.6-1,2.6-1,4.2c0,0-0.5,3.3,1,4.1
		c0.6,0.3,1.2-0.1,2.5-3.3c0,0,10.8-27.6,11.3-39C138.5,25.9,142.3,20.3,133.5,9.6L133.5,9.6z M114.7,59.3c0,0-1.1-0.7-1-4.1
		c0,0,0.3-5.8,4.2-10.4c0,0,1.1-1.4,2-1.6c0.3-0.1,0.8,0.4,1,2.2c0.1,0.4-1.2,0.5-0.7,1.9c0,0,2.1,5.3,6.5,2.9
		c-0.2,1.1-0.4,2.2-0.6,3.3C123.8,56.7,119,62.2,114.7,59.3L114.7,59.3z M170.7,36.9c0,0,8.7,9.3,8.4,15.8c0,0-1.2,9-16.1,8.7
		c0,0-3.7-0.5-0.1-2.9c0,0,9.7-3.1,3.3-14.7c0,0-6,7-9.9,10.9l0,0c-11.3,11.1-13.6,7-13.6,7c-4.3-6.2-1.2-19.7-1.2-19.7
		c1.7-7.1,5.4-4.6,5.4-4.6c5.4,0.9,3.4,5.5,3.4,5.5c-0.7,3.6-1.6,3.2-1.6,3.2c-1.7,1.3-2,7.3-2,7.3c0.7,3.3-2.2,7.8,6.2,0.5
		c2-2,12-13.3,13.6-17.8C166.6,36.1,168.3,31.7,170.7,36.9L170.7,36.9z M157.7,23.1c-0.1,1.4-0.9,2.6-1.9,3.2
		c-1.5,1.1-4.5,3-5.4,2.7c-1-0.3,0.1-3.4,0.2-4.2c0.1-1,0.1-1.7,0.3-2.6c0.3-2.1,2-3.6,3.9-3.5C156.6,18.9,157.9,20.8,157.7,23.1
		L157.7,23.1z M219.4,35.1c2.6-3.4,4.4-1.9,4.4-1.9c0.2,0.1,0.8,0,1,0c3.4-0.3,0.6,3.1,0.6,3.1c-2.9,3.9-5.5,11.3-5.5,11.3
		c-0.7,1.7-1.3,4.4-1.3,4.4c-1.1,4.5,3.7,1.3,3.7,1.3c0.7-0.5,1.3-1.2,1.6-1.5c0.5-0.5,1-0.6,1-0.6c1-0.1-0.7-5.3-0.7-5.3
		c-0.7-2-0.6-2.1-0.6-2.1c-0.5-2.5,0.9-3.1,0.9-3.1c1.5-0.9,2.7,1.5,2.7,1.5c1.3,2,2.5,7.3,2.5,7.3c1.1,4.7-2.4,4.3-2.4,4.3
		c-1.5,0.3-3.9,2.8-3.9,2.8c-3.9,3.2-9.3,3.5-9.3,3.5c-5.4,0.2-4.9-4.5-4.9-4.5C209.1,50.5,219.4,35.1,219.4,35.1L219.4,35.1z
		 M197.9,41.9c2.5,1.7,6.6,5.5,5.9,9.5c0,0-1.2,9-16.1,8.7c0,0-1.6-0.1-1.7-1.1c0-0.7,0.3-1.3,1.6-1.8c0,0,9.7-3.1,3.3-14.7
		c0,0-2.4,1.9-5.7,4.5c0,0-2.3,2.6-2.2-1.1c0,0,0.2-2,1.1-2.8c0,0,5.4-3.2,7.2-8.2c0.9-3.3,5.7-6.1,6.2-3.3c0.2,1.2-1.2,2-1.9,2.9
		C194,36.4,196.1,40.7,197.9,41.9L197.9,41.9L197.9,41.9z M102.1,59.8c0,0,0-0.2-0.2-0.3c-0.4-0.3-2.4,0.6-4.3,1.8
		c-0.3,0.2-0.6,0.3-0.9,0.5c-0.7,0.4-1.4,0.9-1.7,1.1c0,0-1.3,1-1.1-1.2c0,0,0-0.1,0-0.1h0c0-0.5,0.1-1.1,0.2-1.8
		c0,0,1.7-6.9,2.5-8.8c0,0,0.4-1.8,1.1-3.9c0,0,2.9-3-2.5-4c0,0-2.6-6.3-5.3,3.6l0,0c-0.2-1-1.1-2.6-2.6-3.2
		c-0.3-0.2-0.7-0.3-1.3-0.3c-0.2,0-0.4,0-0.8,0c0,0-2.6-0.9-5.3,2.6c-2.9,3.2-11.5,13.5-9.6,22.1c0,0,1.1,4.5,5,4.4
		c0,0,5.2,0.1,9.2-3.7c0,0,1.2-1,2.5-2.6c0,0.5,0.1,1.1,0.3,1.7c0,0.1,0.1,0.2,0.1,0.3c0,0,0.1,1,1,1.8c0.6,0.6,1.6,1,3.1,0.8
		c0.2,0,0.3-0.1,0.5-0.1c0,0,5.5-1.3,5.4-3.7c-0.1-1.2,0.4-1.4,0.4-1.4s0.4-0.2,0.2-0.6C97.8,64.6,102.2,61.7,102.1,59.8L102.1,59.8
		z M86.1,63.1c-0.5,0.7-0.9,1.6-2.1,2.3c0,0-6.1,3.7-5.9-1.5c0,0,0.2-2.9,1.2-5.6c0,0,2.8-7.1,7.1-11.2c0.4-0.4,0.7-0.4,1-0.1
		c0.6,0.8,0.7,1.8,1.2,2.5c0.1,0.2,0.3,0.4,0.4,0.6c-0.5,2.7-1.8,7.7-2.1,11.5C86.8,62.1,86.4,62.6,86.1,63.1L86.1,63.1z M43.8,34.3
		c1.2,2.1-0.4,5.5-0.4,5.5C36.7,53.5,28.3,86,26.6,92.6l0,0c0,0,0,0.1-0.1,0.3c-0.2,0.6-0.2,0.9-0.2,0.9c-0.1,0.5-0.2,0.9-0.3,1.3
		c-0.2,1-0.3,2.3-0.3,3.8l0,0c0.1,1.8,0,3.6-0.6,3.8c-1.5,0.7-2.3-1.3-2.7-3.5c-1.5-0.3-2.7-2.3-2.7-2.3c-5.5-3.7-1.4-13.8-1.4-13.8
		c3.7-14.7,22-45.7,22-45.7C42.5,34,43.4,33.6,43.8,34.3L43.8,34.3z M71.7,86.3c2.9,4.1,5.1,6.9,4.5,7.5c-2,1.7-10.9-5.2-10.9-5.2
		C49.8,75.6,43,59.3,41.5,55.3c-0.2-0.6,0.2-1.1,0.2-1.1c0.5-0.6,1.4-0.9,3.6-1.2c0,0,0,0,0,0c-1.2-0.6-1.5-0.7-1.4-1.1
		c0.2-0.6,2.4-0.6,2.4-0.6c1.7-0.1,3-0.2,3-0.2c2.5-0.3,3.8-0.5,3.8-0.5c5.3-0.9,7.4-3.2,7.4-3.2c5.3-5.4-3.2-10.7-3.2-10.7
		c-21.5-12.4-38.9-6.5-38.9-6.5c-0.9,0.3-1.7,0.3-2.7-0.1c-2.3-0.8,1.8-4,1.8-4C28.1,17.3,33.7,20,33.7,20
		c20.7,1.4,29.9,12.2,29.9,12.2c7.2,7.6,5.4,13.7,4.4,15.5c-3.5,6.5-11.9,6.6-11.9,6.6c-1.3,0.1-2.4,0.1-3.5,0.1c1,1.1,1.7,3,1.7,3
		C55.9,62.5,71.7,86.3,71.7,86.3L71.7,86.3z M266,56.6c0,0,11.4,9.4-2.7,8.9c0,0-2.7,0.2-4.4-5.4c0,0-4.8-11.1-4.5-15.2
		c-0.5,0.5-3.2,3.8-4.7,7.3c-0.9,2.1-1.2,2.8-2.5,4.8c-0.7,1-1.4,1.9-2,2.5c-6.2,5.8-6.8-1.6-6.8-1.6c-1.3-6.3,1.9-16.4,1.9-16.4
		c2.3-7,5.8-4.1,5.8-4.1c4.8,1.2,2.8,5.8,2.8,5.8c-1,3.5-1.9,2.7-1.9,2.7c-1.2,0.8-1.5,2.5-1.6,3.5c0,0-0.4,3.9,1.3,0.9
		c1.3-2.7,3.8-7.1,5.7-8.5c0,0,2.7-2.9,4.3-0.5C256.6,41.3,263.5,55,266,56.6L266,56.6z" />
        <path class="st0" d="M234.7,68.7c3,0.2,6.3,0.2,10.9,0.7c2.4,0.2,6.1,0.2,6.6,1.8c0.5,1.4-1.3,2.9-4.6,3.5
		c-1.6,0.3-2.7,0.6-4.1,0.5c-1.7-0.1-5.5,0.1-5.6-1.9c-0.1-1.3-2.5-1.2-4.2-1.3c-3.3-0.1-2.9-1.1-2.2-2.2
		C232,69.1,232.9,68.7,234.7,68.7L234.7,68.7z" />
        <g>
            <path class="st0" d="M335,17.6l-57.3,0v57.3l57.3,0L335,17.6z" />
            <path class="st1" d="M296,47.5c0.7-0.4,1.1-1.1,1.1-1.9v-1.1c0-1.2-0.5-3.2-3.7-3.2h-11.1v13.3h11.3c2.4,0,4-1.2,4-3.1v-1.5
			C297.6,48.8,297.1,47.9,296,47.5z M294.6,45.6c0,0.5-0.2,1.2-1.5,1.2c0,0-7.7,0-8.4,0c0-0.6,0-2.7,0-3.3c0.7,0,8.5,0,8.5,0
			c0.2,0,1.4,0,1.4,0.9V45.6z M284.7,48.9c0.7,0,8.4,0,8.4,0c1.6,0,2,0.3,2,1.4v0.9c0,0.8-0.3,1.3-1.8,1.3c0,0-7.9,0-8.6,0
			C284.7,51.9,284.7,49.5,284.7,48.9z M303,52.5h9.8v2.1h-12.2V41.3h2.5V52.5z M330.4,41.3v9.8c0,3.1-1.9,3.7-4.9,3.7h-5.8
			c-3,0-4.9-0.6-4.9-3.7v-9.8h2.5v9.8c0,0.9,0.2,1.5,2.3,1.5h5.9c2.2,0,2.3-0.6,2.3-1.5v-9.8H330.4z" />
        </g>
    </g>
</svg>