<?xml version="1.0" encoding="UTF-8"?>
<svg width="320px" height="320px" viewBox="0 0 320 320" version="1.1" xmlns="http://www.w3.org/2000/svg" xmlns:xlink="http://www.w3.org/1999/xlink">
    <!-- Generator: Sketch 53.2 (72643) - https://sketchapp.com -->
    <title>LOGO BLACK BACKGROUND MAIN USE</title>
    <desc>Created with Sketch.</desc>
    <defs>
        <polygon id="path-1" points="0.06 0.636 319.363 0.636 319.363 320 0.06 320"></polygon>
    </defs>
    <g id="Page-1" stroke="none" stroke-width="1" fill="none" fill-rule="evenodd">
        <g id="LOGO-BLACK-BACKGROUND-MAIN-USE">
            <g id="Group-3">
                <mask id="mask-2" fill="white">
                    <use xlink:href="#path-1"></use>
                </mask>
                <g id="Clip-2"></g>
                <polygon id="Fill-1" fill="#131614" mask="url(#mask-2)" points="0.06 320 319.363 320 319.363 0.636 0.06 0.636"></polygon>
            </g>
            <path d="M238.97,113.807 C238.97,105.976 235.707,101.734 228.202,101.734 L218.576,101.734 L218.576,175.477 L228.202,175.477 C235.707,175.477 238.97,171.235 238.97,163.567 L238.97,113.807 Z M229.671,192.934 L198.346,192.934 L198.346,84.278 L229.671,84.278 C248.759,84.278 259.363,96.514 259.363,113.644 L259.363,164.546 C259.363,181.84 248.759,192.934 229.671,192.934 L229.671,192.934 Z" id="Fill-4" fill="#D63330"></path>
            <polyline id="Fill-5" fill="#D63330" points="136.808 192.934 136.808 84.278 188.688 84.278 188.688 101.734 157.037 101.734 157.037 128.654 178.899 128.654 178.899 144.643 157.037 144.643 157.037 174.824 188.688 174.824 188.688 192.934 136.808 192.934"></polyline>
            <path d="M101.097,108.559 C101.097,103.664 98.975,100.728 93.918,100.728 L82.824,100.728 L82.824,132.704 L93.102,132.704 C98.323,132.704 101.097,129.931 101.097,124.057 L101.097,108.559 Z M112.843,193.395 C104.849,193.395 101.749,186.869 101.749,177.406 L101.749,157.013 C101.749,151.955 99.138,147.714 93.428,147.714 L82.824,147.714 L82.824,192.742 L62.594,192.742 L62.594,84.086 L96.039,84.086 C110.885,84.086 120.837,92.57 120.837,107.743 L120.837,123.079 C120.837,131.236 117.085,137.272 108.601,139.883 C117.085,142.167 121.163,149.345 121.163,156.36 L121.163,176.265 C121.163,181.322 122.632,184.748 125.079,187.358 L125.079,193.395 L112.843,193.395 L112.843,193.395 Z" id="Fill-6" fill="#D63330"></path>
            <path d="M106.055,264.042 C106.275,263.822 106.495,263.272 107.816,262.942 C107.816,262.942 152.149,247.871 211.223,250.951 C211.223,250.951 214.634,250.842 213.644,252.271 C213.094,253.151 212.103,253.151 210.233,253.262 C210.233,253.262 209.574,253.372 207.044,253.372 C207.044,253.372 213.094,255.682 189.332,255.242 C189.332,255.242 191.422,257.332 182.621,256.782 C182.621,256.782 158.199,255.571 108.805,264.593 C108.805,264.593 104.955,265.362 106.055,264.042" id="Fill-7" fill="#FFFFFE"></path>
            <path d="M178.771,231.92 C177.341,228.84 176.241,231.48 176.241,231.48 C175.361,234.12 169.2,241.051 167.99,242.261 C162.93,246.661 164.69,243.911 164.25,241.931 C164.25,241.931 164.47,238.301 165.46,237.53 C165.46,237.53 166.011,237.75 166.45,235.55 C166.45,235.55 167.66,232.689 164.36,232.14 C164.36,232.14 162.16,230.6 161.059,235 C161.059,235 159.189,243.251 161.83,246.991 C161.83,246.991 163.15,249.411 170.081,242.701 C172.39,240.28 176.021,236.101 176.021,236.101 C179.871,243.141 174.041,245.011 174.041,245.011 C171.841,246.441 174.041,246.771 174.041,246.771 C183.172,246.991 183.832,241.49 183.832,241.49 C184.052,237.53 178.771,231.92 178.771,231.92" id="Fill-8" fill="#FFFFFE"></path>
            <path d="M144.778,245.562 C144.778,245.562 144.009,245.121 144.118,243.031 C144.118,243.031 144.228,239.511 146.648,236.761 C146.648,236.761 147.308,235.88 147.859,235.77 C148.079,235.77 148.409,235.99 148.518,237.09 C148.518,237.311 147.749,237.42 148.079,238.301 C148.079,238.301 149.289,241.49 152.039,240.061 C151.93,240.721 151.819,241.381 151.599,242.041 C150.279,243.911 147.308,247.321 144.778,245.562 Z M156.109,215.309 C156.109,215.309 153.249,211.568 153.689,215.858 C153.689,215.858 154.13,224.77 152.589,235.88 C152.479,235.44 152.26,235 151.93,234.561 C151.93,234.561 149.399,231.15 146.539,232.14 C146.539,232.14 142.798,233.24 140.708,238.851 C140.708,238.851 139.168,242.591 139.608,245.562 C139.608,245.562 139.498,253.042 148.739,247.762 C148.739,247.762 149.619,247.102 150.829,246.001 C150.609,246.881 150.279,247.541 150.169,248.531 C150.169,248.531 149.839,250.512 150.829,251.062 C151.159,251.172 151.489,250.951 152.26,248.972 C152.26,248.972 158.86,232.25 159.189,225.319 C159.189,225.319 161.5,221.799 156.109,215.309 L156.109,215.309 Z" id="Fill-9" fill="#FFFFFE"></path>
            <path d="M208.363,230.82 C208.363,230.82 202.094,240.171 202.203,243.251 C202.203,243.251 201.873,246.111 205.174,246.001 C205.174,246.001 208.473,245.891 210.784,243.911 C210.784,243.911 212.324,242.371 213.204,242.261 C213.204,242.261 215.294,242.48 214.634,239.62 C214.634,239.62 213.973,236.431 213.094,235.22 C213.094,235.22 212.433,233.79 211.554,234.34 C211.554,234.34 210.674,234.67 210.893,236.21 C210.893,236.21 210.893,236.21 211.334,237.53 C211.334,237.53 212.324,240.61 211.664,240.721 C211.664,240.721 211.444,240.721 211.114,241.051 C210.893,241.161 210.563,241.601 210.124,241.931 C210.124,241.931 207.263,243.801 207.924,241.161 C207.924,241.161 208.254,239.511 208.693,238.52 C208.693,238.52 210.233,234.01 212.103,231.59 C212.103,231.59 213.754,229.5 211.664,229.72 C211.554,229.72 211.223,229.83 211.114,229.72 C211.114,229.72 210.013,228.729 208.363,230.82" id="Fill-10" fill="#FFFFFE"></path>
            <path d="M195.272,235 L195.272,235 C194.173,234.23 192.963,231.7 193.952,230.489 C194.282,229.939 195.163,229.39 195.053,228.62 C194.833,226.97 191.862,228.729 191.312,230.71 C190.212,233.681 186.912,235.66 186.912,235.66 C186.471,236.101 186.252,237.311 186.252,237.311 C186.252,239.62 187.572,237.971 187.572,237.971 C189.662,236.431 191.093,235.33 191.093,235.33 C194.942,242.371 189.112,244.241 189.112,244.241 C188.342,244.571 188.122,244.901 188.122,245.341 C188.122,246.001 189.112,246.001 189.112,246.001 C198.133,246.221 198.903,240.721 198.903,240.721 C199.343,238.301 196.812,235.99 195.272,235" id="Fill-11" fill="#FFFFFE"></path>
            <path d="M127.287,247.871 C127.067,248.312 126.737,248.751 126.077,249.302 C126.077,249.302 122.337,251.502 122.447,248.312 C122.447,248.312 122.556,246.551 123.217,244.901 C123.217,244.901 124.867,240.61 127.507,238.08 C127.727,237.86 127.947,237.86 128.167,237.971 C128.497,238.52 128.607,239.07 128.827,239.511 C128.937,239.62 128.937,239.841 129.047,239.95 C128.717,241.49 127.947,244.571 127.837,246.881 C127.727,247.211 127.507,247.541 127.287,247.871 Z M136.968,245.891 C136.968,245.891 136.968,245.781 136.858,245.671 C136.638,245.451 135.428,246.001 134.327,246.771 C134.108,246.881 133.888,246.991 133.778,247.102 C133.338,247.321 132.898,247.541 132.787,247.762 C132.787,247.762 132.017,248.312 132.017,246.991 C132.017,246.991 132.017,246.991 132.017,246.881 C132.127,246.661 132.127,246.221 132.127,245.781 C132.127,245.781 133.227,241.601 133.667,240.501 C133.667,240.501 133.888,239.4 134.327,238.08 C134.327,238.08 136.088,236.21 132.787,235.66 C132.787,235.66 131.247,231.81 129.597,237.86 C129.377,237.2 128.827,236.32 127.947,235.88 C127.837,235.77 127.507,235.77 127.177,235.66 C127.067,235.66 126.957,235.77 126.737,235.66 C126.737,235.66 125.087,235.11 123.437,237.2 C121.677,239.181 116.396,245.451 117.606,250.731 C117.606,250.731 118.266,253.372 120.686,253.372 C120.686,253.372 123.877,253.481 126.297,251.172 C126.297,251.172 126.957,250.512 127.727,249.521 C127.837,249.852 127.837,250.291 127.947,250.621 C127.947,250.621 127.947,250.731 127.947,250.842 C127.947,250.842 128.057,251.392 128.607,251.832 C128.937,252.162 129.487,252.491 130.477,252.382 C130.587,252.271 130.698,252.271 130.807,252.271 C130.807,252.271 134.108,251.392 134.108,249.962 C133.997,249.302 134.327,249.191 134.327,249.191 C134.327,249.191 134.438,249.081 134.438,248.751 C134.438,248.751 137.078,246.991 136.968,245.891 L136.968,245.891 Z" id="Fill-12" fill="#FFFFFE"></path>
            <path d="M118.486,261.952 C118.486,261.952 108.915,247.541 107.926,244.461 C107.926,244.461 107.486,243.251 106.935,242.591 C107.596,242.591 108.256,242.591 109.026,242.591 C109.026,242.591 114.086,242.48 116.286,238.52 C116.836,237.42 118.046,233.681 113.646,229.06 C113.646,229.06 108.035,222.459 95.494,221.689 C95.494,221.689 92.084,220.039 85.594,225.43 C85.594,225.43 83.064,227.3 84.493,227.85 C85.154,228.069 85.594,227.96 86.144,227.85 C86.144,227.85 96.704,224.329 109.796,231.81 C109.796,231.81 114.966,235.11 111.666,238.301 C111.666,238.301 110.456,239.73 107.156,240.28 C107.156,240.28 106.385,240.391 104.846,240.61 C104.846,240.61 104.075,240.61 103.085,240.721 C103.085,240.721 101.765,240.721 101.655,241.051 C101.545,241.27 101.765,241.381 102.535,241.711 C101.105,241.931 100.665,242.041 100.335,242.48 C100.335,242.48 100.005,242.811 100.115,243.141 C101.105,245.562 105.285,255.462 114.636,263.272 C114.636,263.272 120.137,267.562 121.237,266.463 C121.677,266.133 120.356,264.372 118.486,261.952" id="Fill-13" fill="#FFFFFE"></path>
            <path d="M236.746,243.911 C235.206,242.921 231.025,234.561 231.025,234.561 C230.035,233.13 228.385,234.89 228.385,234.89 C227.285,235.77 225.745,238.52 224.975,240.061 C223.875,241.931 224.205,239.511 224.205,239.511 C224.205,238.851 224.425,237.86 225.085,237.42 C225.085,237.42 225.635,237.86 226.295,235.77 C226.295,235.77 227.505,232.91 224.535,232.14 C224.535,232.14 222.445,230.38 221.014,234.67 C221.014,234.67 219.034,240.831 219.915,244.571 C219.915,244.571 220.245,249.081 223.984,245.562 C224.425,245.231 224.755,244.681 225.195,244.131 C225.965,242.921 226.184,242.48 226.735,241.161 C227.725,239.07 229.375,237.09 229.596,236.761 C229.375,239.29 232.346,246.001 232.346,246.001 C233.336,249.411 234.985,249.302 234.985,249.302 C243.566,249.632 236.746,243.911 236.746,243.911" id="Fill-14" fill="#FFFFFE"></path>
            <path d="M217.715,251.281 C219.474,251.392 221.564,251.392 224.314,251.722 C225.745,251.832 228.055,251.832 228.385,252.712 C228.605,253.592 227.505,254.472 225.635,254.912 C224.645,255.132 223.984,255.242 223.104,255.242 C222.005,255.242 219.694,255.242 219.694,254.032 C219.585,253.262 218.154,253.262 217.164,253.262 C215.184,253.151 215.404,252.602 215.845,251.941 C216.064,251.502 216.614,251.281 217.715,251.281" id="Fill-15" fill="#FFFFFE"></path>
        </g>
    </g>
</svg>