<svg width="633" height="183" viewBox="0 0 633 183" fill="none" xmlns="http://www.w3.org/2000/svg">
<path d="M0 181.315V179.766H2.58367C7.75102 179.766 8.78449 178.216 8.78449 161.686V120.877C8.78449 104.863 7.75102 103.314 2.58367 102.797H0V101.247H35.138V102.797H32.5543C27.3869 102.797 25.8367 104.347 25.8367 120.877V161.686C25.8367 177.7 26.8702 179.249 32.5543 179.766H35.138V181.315H0V181.315Z" fill="#53565A"/>
<path d="M80.0939 181.315V179.766H82.6776C86.2947 179.766 87.3282 179.249 87.3282 163.752V142.056C87.3282 133.275 83.711 128.109 76.4768 128.109C70.7927 128.109 66.6588 131.208 64.0751 136.374V164.269C64.0751 179.766 65.1086 179.766 69.2425 180.282H71.8261V181.832H41.3388V180.282H43.9225C48.0564 180.282 48.5731 179.766 48.5731 164.269V144.123C48.5731 128.626 47.5396 128.626 43.9225 128.109H41.3388V126.559H64.0751V134.308C67.1755 129.659 71.3094 125.526 81.6441 125.526C93.529 125.526 103.347 131.208 103.347 145.672V164.785C103.347 180.282 104.38 180.282 107.998 180.799H110.581V182.349H80.0939V181.315Z" fill="#53565A"/>
<path d="M145.719 181.315C129.7 181.315 115.749 173.05 115.749 153.421C115.749 136.374 127.633 125.01 145.719 125.01C148.82 125.01 152.437 125.526 155.537 126.559V118.811C155.537 103.314 154.504 103.314 150.887 102.797H148.303V101.247H171.556V163.752C171.556 179.249 172.589 179.249 176.207 179.766H178.79V181.315H145.719ZM155.537 128.109C152.437 127.076 149.853 126.559 147.269 126.559C136.935 126.559 132.801 134.824 132.801 153.421C132.801 168.401 136.935 179.766 147.786 179.766H155.537V128.109Z" fill="#53565A"/>
<path d="M184.474 181.316V179.766H187.058C191.192 179.766 191.708 179.249 191.708 163.752V144.123C191.708 128.626 190.675 128.626 187.058 128.109H184.474V126.559H207.211V164.269C207.211 179.766 208.244 179.766 212.378 180.283H214.962V181.832H184.474V181.316ZM199.46 116.228C194.292 116.228 190.675 113.129 190.675 108.48C190.675 103.83 194.292 100.214 199.46 100.214C204.627 100.214 208.244 103.314 208.244 107.963C208.244 113.129 204.627 116.228 199.46 116.228Z" fill="#53565A"/>
<path d="M242.865 181.832L225.813 141.023C221.679 130.692 220.129 128.626 216.512 128.109H215.478V126.559H244.932V128.109H242.865C238.731 128.109 238.731 131.209 242.348 141.023L253.2 167.885L260.434 148.772C264.051 139.99 261.984 128.626 256.817 128.626H254.75V127.076H274.903V128.626H273.869C270.769 129.142 268.702 132.242 261.984 148.772L248.549 182.349H242.865V181.832Z" fill="#53565A"/>
<path d="M276.97 181.316V179.766H279.554C283.687 179.766 284.204 179.249 284.204 163.752V144.123C284.204 128.626 283.171 128.626 279.554 128.109H276.97V126.559H300.223V164.269C300.223 179.766 301.256 179.766 305.39 180.283H307.974V181.832H276.97V181.316ZM291.955 116.228C286.788 116.228 283.171 113.129 283.171 108.48C283.171 103.83 286.788 100.214 291.955 100.214C297.123 100.214 300.74 103.314 300.74 107.963C300.74 113.129 297.123 116.228 291.955 116.228Z" fill="#53565A"/>
<path d="M343.629 181.315C327.61 181.315 313.658 173.05 313.658 153.421C313.658 136.374 325.543 125.01 343.629 125.01C346.729 125.01 350.346 125.526 353.447 126.559V118.811C353.447 103.314 352.413 103.314 348.796 102.797H346.212V101.247H369.465V163.752C369.465 179.249 370.499 179.249 374.116 179.766H376.7V181.315H343.629ZM353.447 128.109C350.346 127.076 347.762 126.559 345.179 126.559C334.844 126.559 330.71 134.824 330.71 153.421C330.71 168.401 334.844 179.766 345.695 179.766H353.447V128.109V128.109Z" fill="#53565A"/>
<path d="M425.273 181.316V173.567C422.689 178.216 418.038 182.349 409.254 182.349C398.402 182.349 388.068 176.667 388.068 162.203V144.123C388.068 128.626 387.034 128.626 383.417 128.109H380.833V126.559H403.57V165.819C403.57 175.117 407.187 179.766 413.388 179.766C419.072 179.766 422.172 176.667 424.756 171.501V144.123C424.756 128.626 423.722 128.626 419.589 128.109H417.005V126.559H440.258V164.269C440.258 179.766 441.291 179.766 444.909 180.283H447.492V181.832H425.273V181.316Z" fill="#53565A"/>
<path d="M493.998 181.316V173.567C491.415 178.216 486.764 182.349 476.429 182.349C465.061 182.349 456.277 176.666 456.277 166.852C456.277 156.52 464.544 151.355 478.496 151.355C485.214 151.355 489.348 152.388 493.482 154.454V139.474C493.482 131.208 489.864 126.559 482.113 126.559C476.946 126.559 474.879 128.109 474.879 129.659C474.879 131.725 477.463 133.275 477.463 137.407C477.463 141.54 474.362 144.639 469.195 144.639C463.511 144.639 460.411 141.54 460.411 137.407C460.411 130.175 468.162 125.01 482.63 125.01C496.065 125.01 509.5 130.692 509.5 144.639V164.269C509.5 179.766 510.534 179.766 514.151 180.282H516.735V181.832H493.998V181.316ZM482.113 179.766C486.764 179.766 491.415 176.15 493.482 171.501V156.004C490.381 154.454 487.281 153.421 483.147 153.421C477.463 153.421 472.812 156.52 472.812 167.368C472.812 176.666 476.946 179.766 482.113 179.766Z" fill="#53565A"/>
<path d="M520.869 181.316V179.766H523.452C527.586 179.766 528.103 179.249 528.103 163.752V118.294C528.103 102.797 527.069 102.797 523.452 102.281H520.869V100.731H544.122V163.236C544.122 178.733 545.155 178.733 549.289 179.249H551.873V180.799H520.869V181.316Z" fill="#53565A"/>
<path d="M581.843 182.865C578.226 182.865 575.126 182.349 571.509 180.282C569.958 179.766 568.408 179.249 566.858 179.249C564.791 179.249 562.724 180.282 560.657 182.865H559.107V163.236H560.657L561.691 166.335C564.274 173.567 570.475 181.832 581.843 181.832C588.044 181.832 592.178 179.249 592.178 173.567C592.178 159.62 561.691 163.236 561.691 142.056C561.691 131.725 570.475 125.526 580.81 125.526C583.91 125.526 587.011 126.559 590.628 128.109C591.661 128.626 592.695 129.142 593.728 129.142C595.278 129.142 597.345 128.109 598.895 125.526H599.929V143.089H598.379L597.345 139.99C594.762 132.758 588.561 126.559 580.293 126.559C575.126 126.559 572.025 129.142 572.025 133.791C572.025 147.739 602.513 144.123 602.513 165.818C603.546 176.666 593.728 182.865 581.843 182.865Z" fill="#53565A"/>
<path d="M624.215 181.316C619.048 181.316 615.431 177.7 615.431 172.017C615.431 166.852 619.048 162.719 624.215 162.719C629.383 162.719 633 166.335 633 171.501C633 177.7 629.383 181.316 624.215 181.316Z" fill="#F8B03D"/>
<path d="M104.38 38.2261C114.715 36.1598 120.916 29.4444 120.916 20.1462C120.916 15.4971 119.366 10.8479 116.265 7.74853C112.131 3.61598 105.931 1.5497 98.6963 1.5497H72.3428V64.0545H79.0604V39.2592H96.6294L115.232 63.538L115.749 64.0545H124.533L122.983 61.9883L104.38 38.2261ZM78.5436 33.0604V8.78167H97.6628C107.481 8.78167 113.682 13.4308 113.682 20.6628C113.682 28.4113 107.481 33.0604 97.6628 33.0604H78.5436ZM167.939 2.06627L167.422 1.5497H161.738L161.221 2.06627L133.318 62.5048L132.284 64.0545H140.035L140.552 63.538L147.786 47.5243H181.374L188.608 63.538L189.125 64.0545H196.876L195.842 62.5048L167.939 2.06627ZM150.886 40.8089L164.838 10.3314L178.79 40.8089H150.886ZM226.847 2.06627H205.66V64.5711H226.847C245.966 64.5711 259.918 51.6569 259.918 33.577C259.918 14.9805 245.966 2.06627 226.847 2.06627ZM226.847 57.3392H212.895V8.26511H226.847C241.832 8.26511 252.683 18.5965 252.683 32.5438C252.683 47.5243 242.349 57.3392 226.847 57.3392ZM275.936 64.0545H282.654V2.06627H275.936V64.0545ZM324.509 29.4444C310.558 26.8616 307.974 23.2456 307.974 17.5633C307.974 11.3645 313.658 7.23196 321.409 7.23196C328.127 7.23196 333.294 9.29824 338.461 13.4308L339.495 14.4639L340.528 13.4308L343.112 9.81481L344.145 8.78167L343.112 7.74853C336.394 2.58284 330.193 0 321.926 0C310.041 0 301.256 7.23196 301.256 17.0468C301.256 26.8616 307.457 32.0273 322.442 35.1267C335.878 37.7095 338.461 41.3255 338.461 46.4912C338.461 52.69 332.777 57.3392 324.509 57.3392C316.242 57.3392 310.558 54.7563 303.84 48.5575L302.807 47.5243L301.773 48.5575L298.673 51.6569L297.639 52.69L298.673 53.7232C306.424 60.4386 314.175 63.538 323.476 63.538C335.878 63.538 344.662 56.306 344.662 45.9746C345.179 37.7095 338.978 32.5438 324.509 29.4444ZM379.283 29.4444C365.331 26.8616 362.748 23.2456 362.748 17.5633C362.748 11.3645 368.432 7.23196 376.183 7.23196C382.9 7.23196 388.068 9.29824 393.235 13.4308L394.269 14.4639L395.302 13.4308L397.886 9.81481L398.919 8.78167L397.886 7.74853C391.168 2.58284 384.967 0 376.7 0C364.815 0 356.03 7.23196 356.03 17.0468C356.03 26.8616 362.231 32.0273 377.216 35.1267C390.651 37.7095 393.235 41.3255 393.235 46.4912C393.235 52.69 387.551 57.3392 379.283 57.3392C371.016 57.3392 365.331 54.7563 358.614 48.5575L357.58 47.5243L357.064 50.1072L353.963 53.2066L352.93 54.2397L353.963 55.2729C361.714 61.9883 369.465 65.0877 378.767 65.0877C391.168 65.0877 399.953 57.8557 399.953 47.5243C399.953 37.7095 393.752 32.5438 379.283 29.4444ZM443.358 1.03313C427.856 1.03313 411.838 12.9142 411.838 33.0604C411.838 51.6569 425.273 65.0877 442.842 65.0877C458.344 65.0877 474.362 53.2066 474.362 33.0604C474.879 14.4639 461.444 1.03313 443.358 1.03313ZM443.358 58.8889C429.923 58.8889 419.072 47.5243 419.072 33.0604C419.072 18.5965 429.407 7.23196 443.358 7.23196C456.793 7.23196 467.645 18.5965 467.645 33.0604C467.645 47.5243 457.31 58.8889 443.358 58.8889ZM535.854 2.06627V51.6569L497.099 2.58284L496.582 2.06627H490.381V64.5711H497.099V13.9474L536.887 64.0545L537.404 64.5711H542.571V2.06627H535.854Z" fill="#53565A"/>
</svg>
